<mxfile host="65bd71144e">
    <diagram id="TNJItmPizL8yLZ7ZFST4" name="Page-5">
        <mxGraphModel dx="908" dy="657" grid="1" gridSize="10" guides="1" tooltips="1" connect="1" arrows="1" fold="1" page="1" pageScale="1" pageWidth="850" pageHeight="1100" math="0" shadow="0">
            <root>
                <mxCell id="0"/>
                <mxCell id="1" parent="0"/>
                <mxCell id="HVJKaRLp4G_u2odgSPYp-6" style="edgeStyle=orthogonalEdgeStyle;html=1;exitX=0.5;exitY=0;exitDx=0;exitDy=0;entryX=0;entryY=0.5;entryDx=0;entryDy=0;startArrow=none;startFill=0;endArrow=classic;endFill=1;" parent="1" target="HVJKaRLp4G_u2odgSPYp-13" edge="1">
                    <mxGeometry relative="1" as="geometry">
                        <mxPoint x="360" y="200" as="sourcePoint"/>
                    </mxGeometry>
                </mxCell>
                <mxCell id="HVJKaRLp4G_u2odgSPYp-7" style="edgeStyle=orthogonalEdgeStyle;html=1;exitX=0.5;exitY=0;exitDx=0;exitDy=0;entryX=0;entryY=0.5;entryDx=0;entryDy=0;startArrow=none;startFill=0;endArrow=classic;endFill=1;" parent="1" target="HVJKaRLp4G_u2odgSPYp-13" edge="1">
                    <mxGeometry relative="1" as="geometry">
                        <mxPoint x="360" y="320" as="sourcePoint"/>
                    </mxGeometry>
                </mxCell>
                <mxCell id="HVJKaRLp4G_u2odgSPYp-8" style="edgeStyle=orthogonalEdgeStyle;html=1;exitX=0.5;exitY=0;exitDx=0;exitDy=0;entryX=0;entryY=0.5;entryDx=0;entryDy=0;startArrow=none;startFill=0;endArrow=classic;endFill=1;" parent="1" target="HVJKaRLp4G_u2odgSPYp-13" edge="1">
                    <mxGeometry relative="1" as="geometry">
                        <mxPoint x="360" y="440" as="sourcePoint"/>
                    </mxGeometry>
                </mxCell>
                <mxCell id="HVJKaRLp4G_u2odgSPYp-9" style="edgeStyle=orthogonalEdgeStyle;html=1;exitX=1;exitY=0.5;exitDx=0;exitDy=0;startArrow=none;startFill=0;endArrow=classic;endFill=1;entryX=0.5;entryY=1;entryDx=0;entryDy=0;dashed=1;opacity=40;" parent="1" source="HVJKaRLp4G_u2odgSPYp-13" target="HVJKaRLp4G_u2odgSPYp-14" edge="1">
                    <mxGeometry relative="1" as="geometry">
                        <mxPoint x="450" y="340" as="targetPoint"/>
                    </mxGeometry>
                </mxCell>
                <mxCell id="HVJKaRLp4G_u2odgSPYp-10" style="edgeStyle=orthogonalEdgeStyle;html=1;exitX=1;exitY=0.5;exitDx=0;exitDy=0;entryX=0.122;entryY=1.025;entryDx=0;entryDy=0;entryPerimeter=0;startArrow=none;startFill=0;endArrow=classic;endFill=1;dashed=1;opacity=40;" parent="1" source="HVJKaRLp4G_u2odgSPYp-13" target="HVJKaRLp4G_u2odgSPYp-14" edge="1">
                    <mxGeometry relative="1" as="geometry"/>
                </mxCell>
                <mxCell id="HVJKaRLp4G_u2odgSPYp-11" style="edgeStyle=orthogonalEdgeStyle;html=1;exitX=1;exitY=0.5;exitDx=0;exitDy=0;entryX=0.878;entryY=1.05;entryDx=0;entryDy=0;entryPerimeter=0;startArrow=none;startFill=0;endArrow=classic;endFill=1;dashed=1;opacity=40;" parent="1" source="HVJKaRLp4G_u2odgSPYp-13" target="HVJKaRLp4G_u2odgSPYp-14" edge="1">
                    <mxGeometry relative="1" as="geometry"/>
                </mxCell>
                <mxCell id="HVJKaRLp4G_u2odgSPYp-12" style="edgeStyle=orthogonalEdgeStyle;html=1;exitX=0.5;exitY=1;exitDx=0;exitDy=0;startArrow=none;startFill=0;endArrow=classic;endFill=1;" parent="1" source="HVJKaRLp4G_u2odgSPYp-13" target="HVJKaRLp4G_u2odgSPYp-18" edge="1">
                    <mxGeometry relative="1" as="geometry"/>
                </mxCell>
                <mxCell id="HVJKaRLp4G_u2odgSPYp-13" value="Confidence measure" style="rounded=1;whiteSpace=wrap;html=1;fillColor=#fff2cc;strokeColor=#d6b656;" parent="1" vertex="1">
                    <mxGeometry x="440" y="290" width="120" height="60" as="geometry"/>
                </mxCell>
                <mxCell id="HVJKaRLp4G_u2odgSPYp-14" value="Layer N" style="rounded=1;whiteSpace=wrap;html=1;direction=south;fillColor=#f5f5f5;strokeColor=#666666;opacity=40;fontColor=#333333;" parent="1" vertex="1">
                    <mxGeometry x="600" y="160" width="40" height="320" as="geometry"/>
                </mxCell>
                <mxCell id="HVJKaRLp4G_u2odgSPYp-15" style="edgeStyle=orthogonalEdgeStyle;html=1;exitX=0.5;exitY=0;exitDx=0;exitDy=0;entryX=0.125;entryY=1;entryDx=0;entryDy=0;entryPerimeter=0;startArrow=none;startFill=0;endArrow=classic;endFill=1;" parent="1" edge="1">
                    <mxGeometry relative="1" as="geometry">
                        <mxPoint x="280" y="199.8800000000001" as="sourcePoint"/>
                        <mxPoint x="320" y="199.8800000000001" as="targetPoint"/>
                    </mxGeometry>
                </mxCell>
                <mxCell id="HVJKaRLp4G_u2odgSPYp-16" style="edgeStyle=orthogonalEdgeStyle;html=1;exitX=0.5;exitY=0;exitDx=0;exitDy=0;entryX=0.5;entryY=1;entryDx=0;entryDy=0;startArrow=none;startFill=0;endArrow=classic;endFill=1;" parent="1" edge="1">
                    <mxGeometry relative="1" as="geometry">
                        <mxPoint x="280" y="319.8800000000001" as="sourcePoint"/>
                        <mxPoint x="320" y="319.8800000000001" as="targetPoint"/>
                    </mxGeometry>
                </mxCell>
                <mxCell id="HVJKaRLp4G_u2odgSPYp-17" style="edgeStyle=orthogonalEdgeStyle;html=1;exitX=0.5;exitY=0;exitDx=0;exitDy=0;entryX=0.875;entryY=1.1;entryDx=0;entryDy=0;entryPerimeter=0;startArrow=none;startFill=0;endArrow=classic;endFill=1;" parent="1" edge="1">
                    <mxGeometry relative="1" as="geometry">
                        <mxPoint x="280" y="439.8800000000001" as="sourcePoint"/>
                        <mxPoint x="315.9999999999998" y="439.8800000000001" as="targetPoint"/>
                    </mxGeometry>
                </mxCell>
                <mxCell id="HVJKaRLp4G_u2odgSPYp-18" value="Output" style="rounded=1;whiteSpace=wrap;html=1;fillColor=#e1d5e7;strokeColor=#9673a6;" parent="1" vertex="1">
                    <mxGeometry x="440" y="520" width="120" height="60" as="geometry"/>
                </mxCell>
                <mxCell id="HVJKaRLp4G_u2odgSPYp-19" value="&lt;font style=&quot;font-size: 16px;&quot;&gt;...&lt;/font&gt;" style="text;html=1;strokeColor=none;fillColor=none;align=center;verticalAlign=middle;whiteSpace=wrap;rounded=0;" parent="1" vertex="1">
                    <mxGeometry x="645" y="300" width="30" height="30" as="geometry"/>
                </mxCell>
                <mxCell id="HVJKaRLp4G_u2odgSPYp-28" value="&lt;i style=&quot;&quot;&gt;&lt;b&gt;H&lt;/b&gt;&lt;span style=&quot;font-size: 10px;&quot;&gt;&lt;sup style=&quot;&quot;&gt;2&lt;/sup&gt;&lt;/span&gt;&lt;/i&gt;" style="rounded=1;whiteSpace=wrap;html=1;direction=south;fillColor=#fff2cc;strokeColor=#d6b656;" parent="1" vertex="1">
                    <mxGeometry x="320" y="160" width="40" height="320" as="geometry"/>
                </mxCell>
                <mxCell id="HVJKaRLp4G_u2odgSPYp-31" value="Layer N-1" style="rounded=1;whiteSpace=wrap;html=1;direction=south;fillColor=#f5f5f5;strokeColor=#666666;fontColor=#333333;" parent="1" vertex="1">
                    <mxGeometry x="320" y="160" width="40" height="320" as="geometry"/>
                </mxCell>
                <mxCell id="HVJKaRLp4G_u2odgSPYp-32" value="Yes" style="text;html=1;align=center;verticalAlign=middle;resizable=0;points=[];autosize=1;strokeColor=none;fillColor=none;opacity=40;" parent="1" vertex="1">
                    <mxGeometry x="500" y="415" width="40" height="30" as="geometry"/>
                </mxCell>
                <mxCell id="HVJKaRLp4G_u2odgSPYp-34" value="Output" style="rounded=1;whiteSpace=wrap;html=1;fillColor=#e1d5e7;strokeColor=#9673a6;" parent="1" vertex="1">
                    <mxGeometry x="760" y="290" width="120" height="60" as="geometry"/>
                </mxCell>
                <mxCell id="HVJKaRLp4G_u2odgSPYp-35" style="edgeStyle=orthogonalEdgeStyle;html=1;exitX=0.5;exitY=0;exitDx=0;exitDy=0;entryX=0;entryY=0.5;entryDx=0;entryDy=0;fontSize=16;startArrow=none;startFill=0;endArrow=classic;endFill=1;dashed=1;opacity=40;" parent="1" edge="1">
                    <mxGeometry relative="1" as="geometry">
                        <mxPoint x="681.0000000000002" y="200" as="sourcePoint"/>
                        <mxPoint x="760" y="320" as="targetPoint"/>
                        <Array as="points">
                            <mxPoint x="720" y="200"/>
                            <mxPoint x="720" y="320"/>
                        </Array>
                    </mxGeometry>
                </mxCell>
                <mxCell id="HVJKaRLp4G_u2odgSPYp-36" style="edgeStyle=orthogonalEdgeStyle;html=1;entryX=0;entryY=0.5;entryDx=0;entryDy=0;fontSize=16;startArrow=none;startFill=0;endArrow=classic;endFill=1;dashed=1;opacity=40;" parent="1" edge="1">
                    <mxGeometry relative="1" as="geometry">
                        <mxPoint x="681.0000000000002" y="320" as="sourcePoint"/>
                        <mxPoint x="760" y="320" as="targetPoint"/>
                    </mxGeometry>
                </mxCell>
                <mxCell id="HVJKaRLp4G_u2odgSPYp-37" style="edgeStyle=orthogonalEdgeStyle;html=1;exitX=0.5;exitY=0;exitDx=0;exitDy=0;entryX=0;entryY=0.5;entryDx=0;entryDy=0;fontSize=16;startArrow=none;startFill=0;endArrow=classic;endFill=1;dashed=1;opacity=40;" parent="1" edge="1">
                    <mxGeometry relative="1" as="geometry">
                        <mxPoint x="681.0000000000002" y="440" as="sourcePoint"/>
                        <mxPoint x="760" y="320" as="targetPoint"/>
                        <Array as="points">
                            <mxPoint x="720" y="440"/>
                            <mxPoint x="720" y="320"/>
                        </Array>
                    </mxGeometry>
                </mxCell>
                <mxCell id="WWjs0gvv0q4V9kDBqYfS-1" value="&amp;lt;S&amp;gt;" style="rounded=1;whiteSpace=wrap;html=1;direction=south;fillColor=#d5e8d4;strokeColor=#82b366;" parent="1" vertex="1">
                    <mxGeometry x="90" y="160" width="40" height="80" as="geometry"/>
                </mxCell>
                <mxCell id="WWjs0gvv0q4V9kDBqYfS-2" value="Hello" style="rounded=1;whiteSpace=wrap;html=1;direction=south;fillColor=#d5e8d4;strokeColor=#82b366;" parent="1" vertex="1">
                    <mxGeometry x="90" y="280" width="40" height="80" as="geometry"/>
                </mxCell>
                <mxCell id="WWjs0gvv0q4V9kDBqYfS-3" value="World" style="rounded=1;whiteSpace=wrap;html=1;direction=south;fillColor=#d5e8d4;strokeColor=#82b366;" parent="1" vertex="1">
                    <mxGeometry x="90" y="400" width="40" height="80" as="geometry"/>
                </mxCell>
                <mxCell id="o_3BkxdTuNczAav2THQs-1" value="Layer 1" style="rounded=1;whiteSpace=wrap;html=1;direction=south;fillColor=#f5f5f5;strokeColor=#666666;fontColor=#333333;" parent="1" vertex="1">
                    <mxGeometry x="170" y="160" width="40" height="320" as="geometry"/>
                </mxCell>
                <mxCell id="o_3BkxdTuNczAav2THQs-2" value="&lt;font style=&quot;font-size: 16px;&quot;&gt;...&lt;/font&gt;" style="text;html=1;strokeColor=none;fillColor=none;align=center;verticalAlign=middle;whiteSpace=wrap;rounded=0;" parent="1" vertex="1">
                    <mxGeometry x="250" y="300" width="30" height="30" as="geometry"/>
                </mxCell>
                <mxCell id="o_3BkxdTuNczAav2THQs-3" style="edgeStyle=orthogonalEdgeStyle;html=1;exitX=0.5;exitY=0;exitDx=0;exitDy=0;entryX=0.125;entryY=1;entryDx=0;entryDy=0;entryPerimeter=0;startArrow=none;startFill=0;endArrow=classic;endFill=1;" parent="1" edge="1">
                    <mxGeometry relative="1" as="geometry">
                        <mxPoint x="210" y="199.8600000000001" as="sourcePoint"/>
                        <mxPoint x="250" y="199.8600000000001" as="targetPoint"/>
                    </mxGeometry>
                </mxCell>
                <mxCell id="o_3BkxdTuNczAav2THQs-4" style="edgeStyle=orthogonalEdgeStyle;html=1;exitX=0.5;exitY=0;exitDx=0;exitDy=0;entryX=0.5;entryY=1;entryDx=0;entryDy=0;startArrow=none;startFill=0;endArrow=classic;endFill=1;" parent="1" edge="1">
                    <mxGeometry relative="1" as="geometry">
                        <mxPoint x="210" y="319.8600000000001" as="sourcePoint"/>
                        <mxPoint x="250" y="319.8600000000001" as="targetPoint"/>
                    </mxGeometry>
                </mxCell>
                <mxCell id="o_3BkxdTuNczAav2THQs-5" style="edgeStyle=orthogonalEdgeStyle;html=1;exitX=0.5;exitY=0;exitDx=0;exitDy=0;entryX=0.875;entryY=1.1;entryDx=0;entryDy=0;entryPerimeter=0;startArrow=none;startFill=0;endArrow=classic;endFill=1;" parent="1" edge="1">
                    <mxGeometry relative="1" as="geometry">
                        <mxPoint x="210" y="439.8600000000001" as="sourcePoint"/>
                        <mxPoint x="245.99999999999977" y="439.8600000000001" as="targetPoint"/>
                    </mxGeometry>
                </mxCell>
                <mxCell id="o_3BkxdTuNczAav2THQs-6" style="edgeStyle=orthogonalEdgeStyle;html=1;exitX=0.5;exitY=0;exitDx=0;exitDy=0;entryX=0.125;entryY=1;entryDx=0;entryDy=0;entryPerimeter=0;startArrow=none;startFill=0;endArrow=classic;endFill=1;" parent="1" edge="1">
                    <mxGeometry relative="1" as="geometry">
                        <mxPoint x="130" y="199.83000000000013" as="sourcePoint"/>
                        <mxPoint x="170" y="199.83000000000013" as="targetPoint"/>
                    </mxGeometry>
                </mxCell>
                <mxCell id="o_3BkxdTuNczAav2THQs-7" style="edgeStyle=orthogonalEdgeStyle;html=1;exitX=0.5;exitY=0;exitDx=0;exitDy=0;entryX=0.5;entryY=1;entryDx=0;entryDy=0;startArrow=none;startFill=0;endArrow=classic;endFill=1;" parent="1" edge="1">
                    <mxGeometry relative="1" as="geometry">
                        <mxPoint x="130" y="319.83000000000015" as="sourcePoint"/>
                        <mxPoint x="170" y="319.83000000000015" as="targetPoint"/>
                    </mxGeometry>
                </mxCell>
                <mxCell id="o_3BkxdTuNczAav2THQs-8" style="edgeStyle=orthogonalEdgeStyle;html=1;exitX=0.5;exitY=0;exitDx=0;exitDy=0;entryX=0.875;entryY=1.1;entryDx=0;entryDy=0;entryPerimeter=0;startArrow=none;startFill=0;endArrow=classic;endFill=1;" parent="1" edge="1">
                    <mxGeometry relative="1" as="geometry">
                        <mxPoint x="130" y="439.83000000000027" as="sourcePoint"/>
                        <mxPoint x="165.99999999999977" y="439.83000000000027" as="targetPoint"/>
                    </mxGeometry>
                </mxCell>
            </root>
        </mxGraphModel>
    </diagram>
    <diagram id="QxWcX_50z8OQijPZebDe" name="Page-2">
        <mxGraphModel dx="681" dy="493" grid="1" gridSize="10" guides="1" tooltips="1" connect="1" arrows="1" fold="1" page="1" pageScale="1" pageWidth="850" pageHeight="1100" math="0" shadow="0">
            <root>
                <mxCell id="0"/>
                <mxCell id="1" parent="0"/>
                <mxCell id="6zj540lduPljpPmdDsfo-8" style="edgeStyle=orthogonalEdgeStyle;html=1;exitX=0.5;exitY=0;exitDx=0;exitDy=0;entryX=0.125;entryY=1;entryDx=0;entryDy=0;entryPerimeter=0;startArrow=none;startFill=0;endArrow=classic;endFill=1;" parent="1" source="ADwPlNezOe0tnUXiohH1-1" target="Ulh4obd9OHo-TXd3eje--1" edge="1">
                    <mxGeometry relative="1" as="geometry"/>
                </mxCell>
                <mxCell id="ADwPlNezOe0tnUXiohH1-1" value="&amp;lt;S&amp;gt;" style="rounded=1;whiteSpace=wrap;html=1;direction=south;fillColor=#d5e8d4;strokeColor=#82b366;" parent="1" vertex="1">
                    <mxGeometry x="160" y="160" width="40" height="80" as="geometry"/>
                </mxCell>
                <mxCell id="6zj540lduPljpPmdDsfo-9" style="edgeStyle=orthogonalEdgeStyle;html=1;exitX=0.5;exitY=0;exitDx=0;exitDy=0;entryX=0.5;entryY=1;entryDx=0;entryDy=0;startArrow=none;startFill=0;endArrow=classic;endFill=1;" parent="1" source="ADwPlNezOe0tnUXiohH1-2" target="Ulh4obd9OHo-TXd3eje--1" edge="1">
                    <mxGeometry relative="1" as="geometry"/>
                </mxCell>
                <mxCell id="ADwPlNezOe0tnUXiohH1-2" value="Hello" style="rounded=1;whiteSpace=wrap;html=1;direction=south;fillColor=#d5e8d4;strokeColor=#82b366;" parent="1" vertex="1">
                    <mxGeometry x="160" y="280" width="40" height="80" as="geometry"/>
                </mxCell>
                <mxCell id="6zj540lduPljpPmdDsfo-10" style="edgeStyle=orthogonalEdgeStyle;html=1;exitX=0.5;exitY=0;exitDx=0;exitDy=0;entryX=0.875;entryY=1.1;entryDx=0;entryDy=0;entryPerimeter=0;startArrow=none;startFill=0;endArrow=classic;endFill=1;" parent="1" source="ADwPlNezOe0tnUXiohH1-3" target="Ulh4obd9OHo-TXd3eje--1" edge="1">
                    <mxGeometry relative="1" as="geometry"/>
                </mxCell>
                <mxCell id="ADwPlNezOe0tnUXiohH1-3" value="World" style="rounded=1;whiteSpace=wrap;html=1;direction=south;fillColor=#d5e8d4;strokeColor=#82b366;" parent="1" vertex="1">
                    <mxGeometry x="160" y="400" width="40" height="80" as="geometry"/>
                </mxCell>
                <mxCell id="Ulh4obd9OHo-TXd3eje--1" value="Layer 1" style="rounded=1;whiteSpace=wrap;html=1;direction=south;fillColor=#f5f5f5;fontColor=#333333;strokeColor=#666666;" parent="1" vertex="1">
                    <mxGeometry x="240" y="160" width="40" height="320" as="geometry"/>
                </mxCell>
                <mxCell id="6zj540lduPljpPmdDsfo-5" style="edgeStyle=orthogonalEdgeStyle;html=1;exitX=0.5;exitY=0;exitDx=0;exitDy=0;entryX=0;entryY=0.5;entryDx=0;entryDy=0;startArrow=none;startFill=0;endArrow=classic;endFill=1;" parent="1" source="6zj540lduPljpPmdDsfo-1" target="6zj540lduPljpPmdDsfo-4" edge="1">
                    <mxGeometry relative="1" as="geometry"/>
                </mxCell>
                <mxCell id="6zj540lduPljpPmdDsfo-1" value="&lt;i&gt;h&lt;/i&gt;&lt;sub&gt;1&lt;/sub&gt;&lt;sup&gt;1&lt;/sup&gt;" style="rounded=1;whiteSpace=wrap;html=1;direction=south;fillColor=#fff2cc;strokeColor=#d6b656;" parent="1" vertex="1">
                    <mxGeometry x="320" y="160" width="40" height="80" as="geometry"/>
                </mxCell>
                <mxCell id="6zj540lduPljpPmdDsfo-6" style="edgeStyle=orthogonalEdgeStyle;html=1;exitX=0.5;exitY=0;exitDx=0;exitDy=0;entryX=0;entryY=0.5;entryDx=0;entryDy=0;startArrow=none;startFill=0;endArrow=classic;endFill=1;" parent="1" source="6zj540lduPljpPmdDsfo-2" target="6zj540lduPljpPmdDsfo-4" edge="1">
                    <mxGeometry relative="1" as="geometry"/>
                </mxCell>
                <mxCell id="6zj540lduPljpPmdDsfo-2" value="&lt;i&gt;h&lt;/i&gt;&lt;sub&gt;2&lt;/sub&gt;&lt;sup&gt;1&lt;/sup&gt;" style="rounded=1;whiteSpace=wrap;html=1;direction=south;fillColor=#fff2cc;strokeColor=#d6b656;" parent="1" vertex="1">
                    <mxGeometry x="320" y="280" width="40" height="80" as="geometry"/>
                </mxCell>
                <mxCell id="6zj540lduPljpPmdDsfo-7" style="edgeStyle=orthogonalEdgeStyle;html=1;exitX=0.5;exitY=0;exitDx=0;exitDy=0;entryX=0;entryY=0.5;entryDx=0;entryDy=0;startArrow=none;startFill=0;endArrow=classic;endFill=1;" parent="1" source="6zj540lduPljpPmdDsfo-3" target="6zj540lduPljpPmdDsfo-4" edge="1">
                    <mxGeometry relative="1" as="geometry"/>
                </mxCell>
                <mxCell id="6zj540lduPljpPmdDsfo-3" value="&lt;i&gt;h&lt;/i&gt;&lt;sub&gt;3&lt;/sub&gt;&lt;sup&gt;1&lt;/sup&gt;" style="rounded=1;whiteSpace=wrap;html=1;direction=south;fillColor=#fff2cc;strokeColor=#d6b656;" parent="1" vertex="1">
                    <mxGeometry x="320" y="400" width="40" height="80" as="geometry"/>
                </mxCell>
                <mxCell id="6zj540lduPljpPmdDsfo-11" style="edgeStyle=orthogonalEdgeStyle;html=1;exitX=1;exitY=0.5;exitDx=0;exitDy=0;startArrow=none;startFill=0;endArrow=classic;endFill=1;entryX=0.5;entryY=1;entryDx=0;entryDy=0;dashed=1;opacity=40;" parent="1" source="6zj540lduPljpPmdDsfo-4" target="6zj540lduPljpPmdDsfo-12" edge="1">
                    <mxGeometry relative="1" as="geometry">
                        <mxPoint x="450" y="340" as="targetPoint"/>
                    </mxGeometry>
                </mxCell>
                <mxCell id="6zj540lduPljpPmdDsfo-13" style="edgeStyle=orthogonalEdgeStyle;html=1;exitX=1;exitY=0.5;exitDx=0;exitDy=0;entryX=0.122;entryY=1.025;entryDx=0;entryDy=0;entryPerimeter=0;startArrow=none;startFill=0;endArrow=classic;endFill=1;dashed=1;opacity=40;" parent="1" source="6zj540lduPljpPmdDsfo-4" target="6zj540lduPljpPmdDsfo-12" edge="1">
                    <mxGeometry relative="1" as="geometry"/>
                </mxCell>
                <mxCell id="6zj540lduPljpPmdDsfo-14" style="edgeStyle=orthogonalEdgeStyle;html=1;exitX=1;exitY=0.5;exitDx=0;exitDy=0;entryX=0.878;entryY=1.05;entryDx=0;entryDy=0;entryPerimeter=0;startArrow=none;startFill=0;endArrow=classic;endFill=1;dashed=1;opacity=40;" parent="1" source="6zj540lduPljpPmdDsfo-4" target="6zj540lduPljpPmdDsfo-12" edge="1">
                    <mxGeometry relative="1" as="geometry"/>
                </mxCell>
                <mxCell id="6zj540lduPljpPmdDsfo-19" style="edgeStyle=orthogonalEdgeStyle;html=1;exitX=0.5;exitY=1;exitDx=0;exitDy=0;startArrow=none;startFill=0;endArrow=classic;endFill=1;" parent="1" source="6zj540lduPljpPmdDsfo-4" target="6zj540lduPljpPmdDsfo-18" edge="1">
                    <mxGeometry relative="1" as="geometry"/>
                </mxCell>
                <mxCell id="6zj540lduPljpPmdDsfo-4" value="Confidence measure" style="rounded=1;whiteSpace=wrap;html=1;" parent="1" vertex="1">
                    <mxGeometry x="440" y="290" width="120" height="60" as="geometry"/>
                </mxCell>
                <mxCell id="6zj540lduPljpPmdDsfo-12" value="Layer 2" style="rounded=1;whiteSpace=wrap;html=1;direction=south;fillColor=#f5f5f5;fontColor=#333333;strokeColor=#666666;opacity=40;" parent="1" vertex="1">
                    <mxGeometry x="600" y="160" width="40" height="320" as="geometry"/>
                </mxCell>
                <mxCell id="6zj540lduPljpPmdDsfo-15" style="edgeStyle=orthogonalEdgeStyle;html=1;exitX=0.5;exitY=0;exitDx=0;exitDy=0;entryX=0.125;entryY=1;entryDx=0;entryDy=0;entryPerimeter=0;startArrow=none;startFill=0;endArrow=classic;endFill=1;" parent="1" edge="1">
                    <mxGeometry relative="1" as="geometry">
                        <mxPoint x="280" y="199.88" as="sourcePoint"/>
                        <mxPoint x="320" y="199.88" as="targetPoint"/>
                    </mxGeometry>
                </mxCell>
                <mxCell id="6zj540lduPljpPmdDsfo-16" style="edgeStyle=orthogonalEdgeStyle;html=1;exitX=0.5;exitY=0;exitDx=0;exitDy=0;entryX=0.5;entryY=1;entryDx=0;entryDy=0;startArrow=none;startFill=0;endArrow=classic;endFill=1;" parent="1" edge="1">
                    <mxGeometry relative="1" as="geometry">
                        <mxPoint x="280" y="319.88" as="sourcePoint"/>
                        <mxPoint x="320" y="319.88" as="targetPoint"/>
                    </mxGeometry>
                </mxCell>
                <mxCell id="6zj540lduPljpPmdDsfo-17" style="edgeStyle=orthogonalEdgeStyle;html=1;exitX=0.5;exitY=0;exitDx=0;exitDy=0;entryX=0.875;entryY=1.1;entryDx=0;entryDy=0;entryPerimeter=0;startArrow=none;startFill=0;endArrow=classic;endFill=1;" parent="1" edge="1">
                    <mxGeometry relative="1" as="geometry">
                        <mxPoint x="280" y="439.88" as="sourcePoint"/>
                        <mxPoint x="316" y="439.88" as="targetPoint"/>
                    </mxGeometry>
                </mxCell>
                <mxCell id="6zj540lduPljpPmdDsfo-18" value="Output" style="rounded=1;whiteSpace=wrap;html=1;fillColor=#e1d5e7;strokeColor=#9673a6;" parent="1" vertex="1">
                    <mxGeometry x="440" y="520" width="120" height="60" as="geometry"/>
                </mxCell>
                <mxCell id="6zj540lduPljpPmdDsfo-20" value="&lt;font style=&quot;font-size: 16px;&quot;&gt;...&lt;/font&gt;" style="text;html=1;strokeColor=none;fillColor=none;align=center;verticalAlign=middle;whiteSpace=wrap;rounded=0;opacity=40;" parent="1" vertex="1">
                    <mxGeometry x="645" y="300" width="30" height="30" as="geometry"/>
                </mxCell>
                <mxCell id="6zj540lduPljpPmdDsfo-21" value="Output" style="rounded=1;whiteSpace=wrap;html=1;fillColor=#e1d5e7;strokeColor=#9673a6;opacity=40;" parent="1" vertex="1">
                    <mxGeometry x="839" y="290" width="120" height="60" as="geometry"/>
                </mxCell>
                <mxCell id="6zj540lduPljpPmdDsfo-27" style="edgeStyle=orthogonalEdgeStyle;html=1;exitX=0.5;exitY=0;exitDx=0;exitDy=0;entryX=0;entryY=0.5;entryDx=0;entryDy=0;fontSize=16;startArrow=none;startFill=0;endArrow=classic;endFill=1;dashed=1;opacity=40;" parent="1" source="6zj540lduPljpPmdDsfo-22" target="6zj540lduPljpPmdDsfo-21" edge="1">
                    <mxGeometry relative="1" as="geometry"/>
                </mxCell>
                <mxCell id="6zj540lduPljpPmdDsfo-22" value="&lt;i&gt;h&lt;/i&gt;&lt;sub&gt;1&lt;/sub&gt;&lt;sup&gt;L&lt;/sup&gt;" style="rounded=1;whiteSpace=wrap;html=1;direction=south;fillColor=#fff2cc;strokeColor=#d6b656;opacity=40;" parent="1" vertex="1">
                    <mxGeometry x="720" y="160" width="40" height="80" as="geometry"/>
                </mxCell>
                <mxCell id="6zj540lduPljpPmdDsfo-26" style="edgeStyle=orthogonalEdgeStyle;html=1;entryX=0;entryY=0.5;entryDx=0;entryDy=0;fontSize=16;startArrow=none;startFill=0;endArrow=classic;endFill=1;dashed=1;opacity=40;" parent="1" target="6zj540lduPljpPmdDsfo-21" edge="1">
                    <mxGeometry relative="1" as="geometry">
                        <mxPoint x="760" y="320" as="sourcePoint"/>
                    </mxGeometry>
                </mxCell>
                <mxCell id="6zj540lduPljpPmdDsfo-23" value="&lt;i&gt;h&lt;/i&gt;&lt;sub&gt;2&lt;/sub&gt;&lt;sup&gt;L&lt;/sup&gt;" style="rounded=1;whiteSpace=wrap;html=1;direction=south;fillColor=#fff2cc;strokeColor=#d6b656;opacity=40;" parent="1" vertex="1">
                    <mxGeometry x="720" y="280" width="40" height="80" as="geometry"/>
                </mxCell>
                <mxCell id="6zj540lduPljpPmdDsfo-28" style="edgeStyle=orthogonalEdgeStyle;html=1;exitX=0.5;exitY=0;exitDx=0;exitDy=0;entryX=0;entryY=0.5;entryDx=0;entryDy=0;fontSize=16;startArrow=none;startFill=0;endArrow=classic;endFill=1;dashed=1;opacity=40;" parent="1" source="6zj540lduPljpPmdDsfo-24" target="6zj540lduPljpPmdDsfo-21" edge="1">
                    <mxGeometry relative="1" as="geometry"/>
                </mxCell>
                <mxCell id="6zj540lduPljpPmdDsfo-24" value="&lt;i&gt;h&lt;/i&gt;&lt;sub&gt;3&lt;/sub&gt;&lt;sup&gt;L&lt;/sup&gt;" style="rounded=1;whiteSpace=wrap;html=1;direction=south;fillColor=#fff2cc;strokeColor=#d6b656;opacity=40;" parent="1" vertex="1">
                    <mxGeometry x="720" y="400" width="40" height="80" as="geometry"/>
                </mxCell>
                <mxCell id="6zj540lduPljpPmdDsfo-29" style="edgeStyle=orthogonalEdgeStyle;html=1;exitX=0.5;exitY=0;exitDx=0;exitDy=0;entryX=0.125;entryY=1;entryDx=0;entryDy=0;entryPerimeter=0;startArrow=none;startFill=0;endArrow=classic;endFill=1;dashed=1;opacity=40;" parent="1" edge="1">
                    <mxGeometry relative="1" as="geometry">
                        <mxPoint x="680" y="199.85999999999999" as="sourcePoint"/>
                        <mxPoint x="720" y="199.85999999999999" as="targetPoint"/>
                    </mxGeometry>
                </mxCell>
                <mxCell id="6zj540lduPljpPmdDsfo-30" style="edgeStyle=orthogonalEdgeStyle;html=1;exitX=0.5;exitY=0;exitDx=0;exitDy=0;entryX=0.5;entryY=1;entryDx=0;entryDy=0;startArrow=none;startFill=0;endArrow=classic;endFill=1;dashed=1;opacity=40;" parent="1" edge="1">
                    <mxGeometry relative="1" as="geometry">
                        <mxPoint x="680" y="319.86" as="sourcePoint"/>
                        <mxPoint x="720" y="319.86" as="targetPoint"/>
                    </mxGeometry>
                </mxCell>
                <mxCell id="JO84kUriDwiis42pv6Oo-1" style="edgeStyle=orthogonalEdgeStyle;html=1;exitX=0.5;exitY=0;exitDx=0;exitDy=0;entryX=0.5;entryY=1;entryDx=0;entryDy=0;startArrow=none;startFill=0;endArrow=classic;endFill=1;dashed=1;opacity=40;" parent="1" edge="1">
                    <mxGeometry relative="1" as="geometry">
                        <mxPoint x="680" y="439.81" as="sourcePoint"/>
                        <mxPoint x="720" y="439.81" as="targetPoint"/>
                    </mxGeometry>
                </mxCell>
            </root>
        </mxGraphModel>
    </diagram>
    <diagram id="br72Wnrcx17zU89-RdlL" name="Page-3">
        <mxGraphModel dx="1135" dy="822" grid="1" gridSize="10" guides="1" tooltips="1" connect="1" arrows="1" fold="1" page="1" pageScale="1" pageWidth="850" pageHeight="1100" math="0" shadow="0">
            <root>
                <mxCell id="0"/>
                <mxCell id="1" parent="0"/>
                <mxCell id="rwvpUzbbOIEf8FDMZuXp-1" style="edgeStyle=orthogonalEdgeStyle;html=1;exitX=0.5;exitY=0;exitDx=0;exitDy=0;entryX=0.125;entryY=1;entryDx=0;entryDy=0;entryPerimeter=0;startArrow=none;startFill=0;endArrow=classic;endFill=1;" parent="1" target="rwvpUzbbOIEf8FDMZuXp-6" edge="1">
                    <mxGeometry relative="1" as="geometry">
                        <mxPoint x="200" y="200" as="sourcePoint"/>
                    </mxGeometry>
                </mxCell>
                <mxCell id="rwvpUzbbOIEf8FDMZuXp-2" style="edgeStyle=orthogonalEdgeStyle;html=1;exitX=0.5;exitY=0;exitDx=0;exitDy=0;entryX=0.5;entryY=1;entryDx=0;entryDy=0;startArrow=none;startFill=0;endArrow=classic;endFill=1;" parent="1" target="rwvpUzbbOIEf8FDMZuXp-6" edge="1">
                    <mxGeometry relative="1" as="geometry">
                        <mxPoint x="200" y="320" as="sourcePoint"/>
                    </mxGeometry>
                </mxCell>
                <mxCell id="rwvpUzbbOIEf8FDMZuXp-3" style="edgeStyle=orthogonalEdgeStyle;html=1;exitX=0.5;exitY=0;exitDx=0;exitDy=0;entryX=0.875;entryY=1.1;entryDx=0;entryDy=0;entryPerimeter=0;startArrow=none;startFill=0;endArrow=classic;endFill=1;" parent="1" target="rwvpUzbbOIEf8FDMZuXp-6" edge="1">
                    <mxGeometry relative="1" as="geometry">
                        <mxPoint x="200" y="440" as="sourcePoint"/>
                    </mxGeometry>
                </mxCell>
                <mxCell id="rwvpUzbbOIEf8FDMZuXp-4" style="edgeStyle=orthogonalEdgeStyle;html=1;entryX=0.5;entryY=0;entryDx=0;entryDy=0;strokeColor=#FF531F;strokeWidth=2;" parent="1" source="rwvpUzbbOIEf8FDMZuXp-6" target="rwvpUzbbOIEf8FDMZuXp-14" edge="1">
                    <mxGeometry relative="1" as="geometry">
                        <Array as="points">
                            <mxPoint x="260" y="120"/>
                            <mxPoint x="500" y="120"/>
                        </Array>
                    </mxGeometry>
                </mxCell>
                <mxCell id="rwvpUzbbOIEf8FDMZuXp-6" value="Layer N-2" style="rounded=1;whiteSpace=wrap;html=1;direction=south;fillColor=#f5f5f5;fontColor=#333333;strokeColor=#666666;" parent="1" vertex="1">
                    <mxGeometry x="240" y="160" width="40" height="320" as="geometry"/>
                </mxCell>
                <mxCell id="rwvpUzbbOIEf8FDMZuXp-7" style="edgeStyle=orthogonalEdgeStyle;html=1;exitX=0.5;exitY=0;exitDx=0;exitDy=0;entryX=0;entryY=0.5;entryDx=0;entryDy=0;startArrow=none;startFill=0;endArrow=classic;endFill=1;" parent="1" target="rwvpUzbbOIEf8FDMZuXp-14" edge="1">
                    <mxGeometry relative="1" as="geometry">
                        <mxPoint x="360" y="200" as="sourcePoint"/>
                    </mxGeometry>
                </mxCell>
                <mxCell id="rwvpUzbbOIEf8FDMZuXp-8" style="edgeStyle=orthogonalEdgeStyle;html=1;exitX=0.5;exitY=0;exitDx=0;exitDy=0;entryX=0;entryY=0.5;entryDx=0;entryDy=0;startArrow=none;startFill=0;endArrow=classic;endFill=1;" parent="1" target="rwvpUzbbOIEf8FDMZuXp-14" edge="1">
                    <mxGeometry relative="1" as="geometry">
                        <mxPoint x="360" y="320" as="sourcePoint"/>
                    </mxGeometry>
                </mxCell>
                <mxCell id="rwvpUzbbOIEf8FDMZuXp-9" style="edgeStyle=orthogonalEdgeStyle;html=1;exitX=0.5;exitY=0;exitDx=0;exitDy=0;entryX=0;entryY=0.5;entryDx=0;entryDy=0;startArrow=none;startFill=0;endArrow=classic;endFill=1;" parent="1" target="rwvpUzbbOIEf8FDMZuXp-14" edge="1">
                    <mxGeometry relative="1" as="geometry">
                        <mxPoint x="360" y="440" as="sourcePoint"/>
                    </mxGeometry>
                </mxCell>
                <mxCell id="rwvpUzbbOIEf8FDMZuXp-10" style="edgeStyle=orthogonalEdgeStyle;html=1;exitX=1;exitY=0.5;exitDx=0;exitDy=0;startArrow=none;startFill=0;endArrow=classic;endFill=1;entryX=0.5;entryY=1;entryDx=0;entryDy=0;dashed=1;opacity=40;" parent="1" source="rwvpUzbbOIEf8FDMZuXp-14" target="rwvpUzbbOIEf8FDMZuXp-15" edge="1">
                    <mxGeometry relative="1" as="geometry">
                        <mxPoint x="450" y="340" as="targetPoint"/>
                    </mxGeometry>
                </mxCell>
                <mxCell id="rwvpUzbbOIEf8FDMZuXp-11" style="edgeStyle=orthogonalEdgeStyle;html=1;exitX=1;exitY=0.5;exitDx=0;exitDy=0;entryX=0.122;entryY=1.025;entryDx=0;entryDy=0;entryPerimeter=0;startArrow=none;startFill=0;endArrow=classic;endFill=1;dashed=1;opacity=40;" parent="1" source="rwvpUzbbOIEf8FDMZuXp-14" target="rwvpUzbbOIEf8FDMZuXp-15" edge="1">
                    <mxGeometry relative="1" as="geometry"/>
                </mxCell>
                <mxCell id="rwvpUzbbOIEf8FDMZuXp-12" style="edgeStyle=orthogonalEdgeStyle;html=1;exitX=1;exitY=0.5;exitDx=0;exitDy=0;entryX=0.878;entryY=1.05;entryDx=0;entryDy=0;entryPerimeter=0;startArrow=none;startFill=0;endArrow=classic;endFill=1;dashed=1;opacity=40;" parent="1" source="rwvpUzbbOIEf8FDMZuXp-14" target="rwvpUzbbOIEf8FDMZuXp-15" edge="1">
                    <mxGeometry relative="1" as="geometry"/>
                </mxCell>
                <mxCell id="rwvpUzbbOIEf8FDMZuXp-13" style="edgeStyle=orthogonalEdgeStyle;html=1;exitX=0.5;exitY=1;exitDx=0;exitDy=0;startArrow=none;startFill=0;endArrow=classic;endFill=1;" parent="1" source="rwvpUzbbOIEf8FDMZuXp-14" target="rwvpUzbbOIEf8FDMZuXp-19" edge="1">
                    <mxGeometry relative="1" as="geometry"/>
                </mxCell>
                <mxCell id="rwvpUzbbOIEf8FDMZuXp-14" value="LSTM" style="rounded=1;whiteSpace=wrap;html=1;fillColor=#fff2cc;strokeColor=#d6b656;" parent="1" vertex="1">
                    <mxGeometry x="440" y="290" width="120" height="60" as="geometry"/>
                </mxCell>
                <mxCell id="rwvpUzbbOIEf8FDMZuXp-15" value="Layer N" style="rounded=1;whiteSpace=wrap;html=1;direction=south;fillColor=#f5f5f5;fontColor=#333333;strokeColor=#666666;opacity=40;" parent="1" vertex="1">
                    <mxGeometry x="600" y="160" width="40" height="320" as="geometry"/>
                </mxCell>
                <mxCell id="rwvpUzbbOIEf8FDMZuXp-16" style="edgeStyle=orthogonalEdgeStyle;html=1;exitX=0.5;exitY=0;exitDx=0;exitDy=0;entryX=0.125;entryY=1;entryDx=0;entryDy=0;entryPerimeter=0;startArrow=none;startFill=0;endArrow=classic;endFill=1;" parent="1" edge="1">
                    <mxGeometry relative="1" as="geometry">
                        <mxPoint x="280" y="199.8800000000001" as="sourcePoint"/>
                        <mxPoint x="320" y="199.8800000000001" as="targetPoint"/>
                    </mxGeometry>
                </mxCell>
                <mxCell id="rwvpUzbbOIEf8FDMZuXp-17" style="edgeStyle=orthogonalEdgeStyle;html=1;exitX=0.5;exitY=0;exitDx=0;exitDy=0;entryX=0.5;entryY=1;entryDx=0;entryDy=0;startArrow=none;startFill=0;endArrow=classic;endFill=1;" parent="1" edge="1">
                    <mxGeometry relative="1" as="geometry">
                        <mxPoint x="280" y="319.8800000000001" as="sourcePoint"/>
                        <mxPoint x="320" y="319.8800000000001" as="targetPoint"/>
                    </mxGeometry>
                </mxCell>
                <mxCell id="rwvpUzbbOIEf8FDMZuXp-18" style="edgeStyle=orthogonalEdgeStyle;html=1;exitX=0.5;exitY=0;exitDx=0;exitDy=0;entryX=0.875;entryY=1.1;entryDx=0;entryDy=0;entryPerimeter=0;startArrow=none;startFill=0;endArrow=classic;endFill=1;" parent="1" edge="1">
                    <mxGeometry relative="1" as="geometry">
                        <mxPoint x="280" y="439.8800000000001" as="sourcePoint"/>
                        <mxPoint x="316" y="439.8800000000001" as="targetPoint"/>
                    </mxGeometry>
                </mxCell>
                <mxCell id="rwvpUzbbOIEf8FDMZuXp-19" value="Output" style="rounded=1;whiteSpace=wrap;html=1;fillColor=#e1d5e7;strokeColor=#9673a6;" parent="1" vertex="1">
                    <mxGeometry x="440" y="520" width="120" height="60" as="geometry"/>
                </mxCell>
                <mxCell id="rwvpUzbbOIEf8FDMZuXp-20" value="&lt;font style=&quot;font-size: 16px;&quot;&gt;...&lt;/font&gt;" style="text;html=1;strokeColor=none;fillColor=none;align=center;verticalAlign=middle;whiteSpace=wrap;rounded=0;opacity=40;" parent="1" vertex="1">
                    <mxGeometry x="645" y="300" width="30" height="30" as="geometry"/>
                </mxCell>
                <mxCell id="rwvpUzbbOIEf8FDMZuXp-21" style="edgeStyle=orthogonalEdgeStyle;html=1;exitX=0.5;exitY=1;exitDx=0;exitDy=0;fillColor=#f8cecc;strokeColor=#FF531F;strokeWidth=2;" parent="1" target="rwvpUzbbOIEf8FDMZuXp-14" edge="1">
                    <mxGeometry relative="1" as="geometry">
                        <mxPoint x="160" y="200" as="sourcePoint"/>
                        <Array as="points">
                            <mxPoint x="180" y="200"/>
                            <mxPoint x="180" y="120"/>
                            <mxPoint x="500" y="120"/>
                        </Array>
                    </mxGeometry>
                </mxCell>
                <mxCell id="rwvpUzbbOIEf8FDMZuXp-22" style="edgeStyle=orthogonalEdgeStyle;html=1;exitX=0.5;exitY=1;exitDx=0;exitDy=0;strokeColor=#FF531F;strokeWidth=2;" parent="1" edge="1">
                    <mxGeometry relative="1" as="geometry">
                        <mxPoint x="160" y="320" as="sourcePoint"/>
                        <mxPoint x="500" y="290" as="targetPoint"/>
                        <Array as="points">
                            <mxPoint x="180" y="320"/>
                            <mxPoint x="180" y="120"/>
                            <mxPoint x="500" y="120"/>
                            <mxPoint x="500" y="286"/>
                        </Array>
                    </mxGeometry>
                </mxCell>
                <mxCell id="rwvpUzbbOIEf8FDMZuXp-23" value="" style="edgeStyle=orthogonalEdgeStyle;html=1;exitX=0.5;exitY=1;exitDx=0;exitDy=0;strokeColor=#FF531F;strokeWidth=2;startArrow=none;" parent="1" source="rwvpUzbbOIEf8FDMZuXp-29" edge="1">
                    <mxGeometry relative="1" as="geometry">
                        <mxPoint x="160" y="440.0000000000001" as="sourcePoint"/>
                        <mxPoint x="500" y="290" as="targetPoint"/>
                        <Array as="points">
                            <mxPoint x="180" y="120"/>
                            <mxPoint x="500" y="120"/>
                        </Array>
                    </mxGeometry>
                </mxCell>
                <mxCell id="rwvpUzbbOIEf8FDMZuXp-25" style="edgeStyle=orthogonalEdgeStyle;html=1;exitX=0.5;exitY=0;exitDx=0;exitDy=0;entryX=0.125;entryY=1;entryDx=0;entryDy=0;entryPerimeter=0;startArrow=none;startFill=0;endArrow=classic;endFill=1;" parent="1" edge="1">
                    <mxGeometry relative="1" as="geometry">
                        <mxPoint x="120" y="199.8800000000001" as="sourcePoint"/>
                        <mxPoint x="160" y="199.8800000000001" as="targetPoint"/>
                    </mxGeometry>
                </mxCell>
                <mxCell id="rwvpUzbbOIEf8FDMZuXp-26" style="edgeStyle=orthogonalEdgeStyle;html=1;exitX=0.5;exitY=0;exitDx=0;exitDy=0;entryX=0.5;entryY=1;entryDx=0;entryDy=0;startArrow=none;startFill=0;endArrow=classic;endFill=1;" parent="1" edge="1">
                    <mxGeometry relative="1" as="geometry">
                        <mxPoint x="120" y="319.8800000000001" as="sourcePoint"/>
                        <mxPoint x="160" y="319.8800000000001" as="targetPoint"/>
                    </mxGeometry>
                </mxCell>
                <mxCell id="rwvpUzbbOIEf8FDMZuXp-27" style="edgeStyle=orthogonalEdgeStyle;html=1;exitX=0.5;exitY=0;exitDx=0;exitDy=0;entryX=0.875;entryY=1.1;entryDx=0;entryDy=0;entryPerimeter=0;startArrow=none;startFill=0;endArrow=classic;endFill=1;" parent="1" edge="1">
                    <mxGeometry relative="1" as="geometry">
                        <mxPoint x="120" y="439.8800000000001" as="sourcePoint"/>
                        <mxPoint x="156" y="439.8800000000001" as="targetPoint"/>
                    </mxGeometry>
                </mxCell>
                <mxCell id="rwvpUzbbOIEf8FDMZuXp-28" value="" style="edgeStyle=orthogonalEdgeStyle;html=1;exitX=0.5;exitY=1;exitDx=0;exitDy=0;strokeColor=#FF531F;strokeWidth=2;endArrow=none;" parent="1" target="rwvpUzbbOIEf8FDMZuXp-29" edge="1">
                    <mxGeometry relative="1" as="geometry">
                        <mxPoint x="160" y="440" as="sourcePoint"/>
                        <mxPoint x="500" y="290" as="targetPoint"/>
                        <Array as="points">
                            <mxPoint x="180" y="440"/>
                        </Array>
                    </mxGeometry>
                </mxCell>
                <mxCell id="rwvpUzbbOIEf8FDMZuXp-29" value="&lt;b&gt;&lt;i&gt;H&lt;/i&gt;&lt;/b&gt;&lt;sup&gt;1&lt;/sup&gt;" style="rounded=1;whiteSpace=wrap;html=1;direction=south;fillColor=#fff2cc;strokeColor=#d6b656;" parent="1" vertex="1">
                    <mxGeometry x="160" y="160" width="40" height="320" as="geometry"/>
                </mxCell>
                <mxCell id="rwvpUzbbOIEf8FDMZuXp-30" value="&lt;i style=&quot;&quot;&gt;&lt;b&gt;H&lt;/b&gt;&lt;span style=&quot;font-size: 10px;&quot;&gt;&lt;sup style=&quot;&quot;&gt;2&lt;/sup&gt;&lt;/span&gt;&lt;/i&gt;" style="rounded=1;whiteSpace=wrap;html=1;direction=south;fillColor=#fff2cc;strokeColor=#d6b656;" parent="1" vertex="1">
                    <mxGeometry x="320" y="160" width="40" height="320" as="geometry"/>
                </mxCell>
                <mxCell id="rwvpUzbbOIEf8FDMZuXp-31" value="Layer N-3" style="rounded=1;whiteSpace=wrap;html=1;direction=south;fillColor=#f5f5f5;fontColor=#333333;strokeColor=#666666;" parent="1" vertex="1">
                    <mxGeometry x="160" y="160" width="40" height="320" as="geometry"/>
                </mxCell>
                <mxCell id="rwvpUzbbOIEf8FDMZuXp-32" style="edgeStyle=orthogonalEdgeStyle;html=1;entryX=0.5;entryY=0;entryDx=0;entryDy=0;strokeColor=#FF531F;strokeWidth=2;" parent="1" source="rwvpUzbbOIEf8FDMZuXp-34" target="rwvpUzbbOIEf8FDMZuXp-14" edge="1">
                    <mxGeometry relative="1" as="geometry">
                        <Array as="points">
                            <mxPoint x="340" y="120"/>
                            <mxPoint x="500" y="120"/>
                        </Array>
                    </mxGeometry>
                </mxCell>
                <mxCell id="rwvpUzbbOIEf8FDMZuXp-34" value="Layer N-1" style="rounded=1;whiteSpace=wrap;html=1;direction=south;fillColor=#f5f5f5;fontColor=#333333;strokeColor=#666666;" parent="1" vertex="1">
                    <mxGeometry x="320" y="160" width="40" height="320" as="geometry"/>
                </mxCell>
                <mxCell id="rwvpUzbbOIEf8FDMZuXp-35" value="Yes" style="text;html=1;align=center;verticalAlign=middle;resizable=0;points=[];autosize=1;strokeColor=none;fillColor=none;opacity=40;" parent="1" vertex="1">
                    <mxGeometry x="500" y="415" width="40" height="30" as="geometry"/>
                </mxCell>
                <mxCell id="DPAfZr7XOeUgwJSyRxDz-1" style="edgeStyle=orthogonalEdgeStyle;html=1;exitX=0;exitY=0.5;exitDx=0;exitDy=0;entryX=0.5;entryY=0;entryDx=0;entryDy=0;strokeColor=#FF531F;strokeWidth=2;" parent="1" source="rwvpUzbbOIEf8FDMZuXp-36" target="rwvpUzbbOIEf8FDMZuXp-14" edge="1">
                    <mxGeometry relative="1" as="geometry">
                        <Array as="points">
                            <mxPoint x="100" y="120"/>
                            <mxPoint x="500" y="120"/>
                        </Array>
                    </mxGeometry>
                </mxCell>
                <mxCell id="rwvpUzbbOIEf8FDMZuXp-36" value="Layer N-4" style="rounded=1;whiteSpace=wrap;html=1;direction=south;fillColor=#f5f5f5;fontColor=#333333;strokeColor=#666666;" parent="1" vertex="1">
                    <mxGeometry x="80" y="160" width="40" height="320" as="geometry"/>
                </mxCell>
                <mxCell id="rwvpUzbbOIEf8FDMZuXp-37" value="&lt;font style=&quot;font-size: 16px;&quot;&gt;...&lt;/font&gt;" style="text;html=1;strokeColor=none;fillColor=none;align=center;verticalAlign=middle;whiteSpace=wrap;rounded=0;opacity=40;" parent="1" vertex="1">
                    <mxGeometry x="40" y="300" width="30" height="30" as="geometry"/>
                </mxCell>
                <mxCell id="rwvpUzbbOIEf8FDMZuXp-38" value="Output" style="rounded=1;whiteSpace=wrap;html=1;fillColor=#e1d5e7;strokeColor=#9673a6;" parent="1" vertex="1">
                    <mxGeometry x="760" y="290" width="120" height="60" as="geometry"/>
                </mxCell>
                <mxCell id="rwvpUzbbOIEf8FDMZuXp-39" style="edgeStyle=orthogonalEdgeStyle;html=1;exitX=0.5;exitY=0;exitDx=0;exitDy=0;entryX=0;entryY=0.5;entryDx=0;entryDy=0;fontSize=16;startArrow=none;startFill=0;endArrow=classic;endFill=1;dashed=1;opacity=40;" parent="1" edge="1">
                    <mxGeometry relative="1" as="geometry">
                        <mxPoint x="681" y="200" as="sourcePoint"/>
                        <mxPoint x="760" y="320" as="targetPoint"/>
                        <Array as="points">
                            <mxPoint x="720" y="200"/>
                            <mxPoint x="720" y="320"/>
                        </Array>
                    </mxGeometry>
                </mxCell>
                <mxCell id="rwvpUzbbOIEf8FDMZuXp-40" style="edgeStyle=orthogonalEdgeStyle;html=1;entryX=0;entryY=0.5;entryDx=0;entryDy=0;fontSize=16;startArrow=none;startFill=0;endArrow=classic;endFill=1;dashed=1;opacity=40;" parent="1" edge="1">
                    <mxGeometry relative="1" as="geometry">
                        <mxPoint x="681" y="320" as="sourcePoint"/>
                        <mxPoint x="760" y="320" as="targetPoint"/>
                    </mxGeometry>
                </mxCell>
                <mxCell id="rwvpUzbbOIEf8FDMZuXp-41" style="edgeStyle=orthogonalEdgeStyle;html=1;exitX=0.5;exitY=0;exitDx=0;exitDy=0;entryX=0;entryY=0.5;entryDx=0;entryDy=0;fontSize=16;startArrow=none;startFill=0;endArrow=classic;endFill=1;dashed=1;opacity=40;" parent="1" edge="1">
                    <mxGeometry relative="1" as="geometry">
                        <mxPoint x="681" y="440" as="sourcePoint"/>
                        <mxPoint x="760" y="320" as="targetPoint"/>
                        <Array as="points">
                            <mxPoint x="720" y="440"/>
                            <mxPoint x="720" y="320"/>
                        </Array>
                    </mxGeometry>
                </mxCell>
            </root>
        </mxGraphModel>
    </diagram>
    <diagram id="p2DbiraopPI6ZysMWwFm" name="Page-4">
        <mxGraphModel dx="908" dy="657" grid="1" gridSize="10" guides="1" tooltips="1" connect="1" arrows="1" fold="1" page="1" pageScale="1" pageWidth="850" pageHeight="1100" math="0" shadow="0">
            <root>
                <mxCell id="0"/>
                <mxCell id="1" parent="0"/>
                <mxCell id="2eqvXjLkkKNTuH9ohz-s-1" style="edgeStyle=orthogonalEdgeStyle;html=1;exitX=0.5;exitY=0;exitDx=0;exitDy=0;entryX=0.125;entryY=1;entryDx=0;entryDy=0;entryPerimeter=0;startArrow=none;startFill=0;endArrow=classic;endFill=1;" parent="1" target="2eqvXjLkkKNTuH9ohz-s-5" edge="1">
                    <mxGeometry relative="1" as="geometry">
                        <mxPoint x="200" y="200" as="sourcePoint"/>
                    </mxGeometry>
                </mxCell>
                <mxCell id="2eqvXjLkkKNTuH9ohz-s-2" style="edgeStyle=orthogonalEdgeStyle;html=1;exitX=0.5;exitY=0;exitDx=0;exitDy=0;entryX=0.5;entryY=1;entryDx=0;entryDy=0;startArrow=none;startFill=0;endArrow=classic;endFill=1;" parent="1" target="2eqvXjLkkKNTuH9ohz-s-5" edge="1">
                    <mxGeometry relative="1" as="geometry">
                        <mxPoint x="200" y="320" as="sourcePoint"/>
                    </mxGeometry>
                </mxCell>
                <mxCell id="2eqvXjLkkKNTuH9ohz-s-3" style="edgeStyle=orthogonalEdgeStyle;html=1;exitX=0.5;exitY=0;exitDx=0;exitDy=0;entryX=0.875;entryY=1.1;entryDx=0;entryDy=0;entryPerimeter=0;startArrow=none;startFill=0;endArrow=classic;endFill=1;" parent="1" target="2eqvXjLkkKNTuH9ohz-s-5" edge="1">
                    <mxGeometry relative="1" as="geometry">
                        <mxPoint x="200" y="440" as="sourcePoint"/>
                    </mxGeometry>
                </mxCell>
                <mxCell id="2eqvXjLkkKNTuH9ohz-s-4" style="edgeStyle=orthogonalEdgeStyle;html=1;entryX=0.5;entryY=0;entryDx=0;entryDy=0;strokeColor=#FF531F;strokeWidth=2;" parent="1" source="2eqvXjLkkKNTuH9ohz-s-5" target="2eqvXjLkkKNTuH9ohz-s-13" edge="1">
                    <mxGeometry relative="1" as="geometry">
                        <Array as="points">
                            <mxPoint x="260" y="120"/>
                            <mxPoint x="500" y="120"/>
                        </Array>
                    </mxGeometry>
                </mxCell>
                <mxCell id="fFqRlI7mInDpZuGGlWFu-9" value="Softmax" style="edgeLabel;html=1;align=center;verticalAlign=middle;resizable=0;points=[];" parent="2eqvXjLkkKNTuH9ohz-s-4" vertex="1" connectable="0">
                    <mxGeometry x="-0.9121" relative="1" as="geometry">
                        <mxPoint as="offset"/>
                    </mxGeometry>
                </mxCell>
                <mxCell id="2eqvXjLkkKNTuH9ohz-s-5" value="Layer N-2" style="rounded=1;whiteSpace=wrap;html=1;direction=south;fillColor=#f5f5f5;fontColor=#333333;strokeColor=#666666;" parent="1" vertex="1">
                    <mxGeometry x="240" y="160" width="40" height="320" as="geometry"/>
                </mxCell>
                <mxCell id="2eqvXjLkkKNTuH9ohz-s-6" style="edgeStyle=orthogonalEdgeStyle;html=1;exitX=0.5;exitY=0;exitDx=0;exitDy=0;entryX=0;entryY=0.5;entryDx=0;entryDy=0;startArrow=none;startFill=0;endArrow=classic;endFill=1;" parent="1" target="2eqvXjLkkKNTuH9ohz-s-13" edge="1">
                    <mxGeometry relative="1" as="geometry">
                        <mxPoint x="360" y="200" as="sourcePoint"/>
                    </mxGeometry>
                </mxCell>
                <mxCell id="2eqvXjLkkKNTuH9ohz-s-7" style="edgeStyle=orthogonalEdgeStyle;html=1;exitX=0.5;exitY=0;exitDx=0;exitDy=0;entryX=0;entryY=0.5;entryDx=0;entryDy=0;startArrow=none;startFill=0;endArrow=classic;endFill=1;" parent="1" target="2eqvXjLkkKNTuH9ohz-s-13" edge="1">
                    <mxGeometry relative="1" as="geometry">
                        <mxPoint x="360" y="320" as="sourcePoint"/>
                    </mxGeometry>
                </mxCell>
                <mxCell id="2eqvXjLkkKNTuH9ohz-s-8" style="edgeStyle=orthogonalEdgeStyle;html=1;exitX=0.5;exitY=0;exitDx=0;exitDy=0;entryX=0;entryY=0.5;entryDx=0;entryDy=0;startArrow=none;startFill=0;endArrow=classic;endFill=1;" parent="1" target="2eqvXjLkkKNTuH9ohz-s-13" edge="1">
                    <mxGeometry relative="1" as="geometry">
                        <mxPoint x="360" y="440" as="sourcePoint"/>
                    </mxGeometry>
                </mxCell>
                <mxCell id="2eqvXjLkkKNTuH9ohz-s-9" style="edgeStyle=orthogonalEdgeStyle;html=1;exitX=1;exitY=0.5;exitDx=0;exitDy=0;startArrow=none;startFill=0;endArrow=classic;endFill=1;entryX=0.5;entryY=1;entryDx=0;entryDy=0;dashed=1;opacity=40;" parent="1" source="2eqvXjLkkKNTuH9ohz-s-13" target="2eqvXjLkkKNTuH9ohz-s-14" edge="1">
                    <mxGeometry relative="1" as="geometry">
                        <mxPoint x="450" y="340" as="targetPoint"/>
                    </mxGeometry>
                </mxCell>
                <mxCell id="2eqvXjLkkKNTuH9ohz-s-10" style="edgeStyle=orthogonalEdgeStyle;html=1;exitX=1;exitY=0.5;exitDx=0;exitDy=0;entryX=0.122;entryY=1.025;entryDx=0;entryDy=0;entryPerimeter=0;startArrow=none;startFill=0;endArrow=classic;endFill=1;dashed=1;opacity=40;" parent="1" source="2eqvXjLkkKNTuH9ohz-s-13" target="2eqvXjLkkKNTuH9ohz-s-14" edge="1">
                    <mxGeometry relative="1" as="geometry"/>
                </mxCell>
                <mxCell id="2eqvXjLkkKNTuH9ohz-s-11" style="edgeStyle=orthogonalEdgeStyle;html=1;exitX=1;exitY=0.5;exitDx=0;exitDy=0;entryX=0.878;entryY=1.05;entryDx=0;entryDy=0;entryPerimeter=0;startArrow=none;startFill=0;endArrow=classic;endFill=1;dashed=1;opacity=40;" parent="1" source="2eqvXjLkkKNTuH9ohz-s-13" target="2eqvXjLkkKNTuH9ohz-s-14" edge="1">
                    <mxGeometry relative="1" as="geometry"/>
                </mxCell>
                <mxCell id="2eqvXjLkkKNTuH9ohz-s-12" style="edgeStyle=orthogonalEdgeStyle;html=1;exitX=0.5;exitY=1;exitDx=0;exitDy=0;startArrow=none;startFill=0;endArrow=classic;endFill=1;" parent="1" source="2eqvXjLkkKNTuH9ohz-s-13" target="2eqvXjLkkKNTuH9ohz-s-18" edge="1">
                    <mxGeometry relative="1" as="geometry"/>
                </mxCell>
                <mxCell id="2eqvXjLkkKNTuH9ohz-s-13" value="Are the three top-1 scores increasing?" style="rounded=1;whiteSpace=wrap;html=1;fillColor=#fff2cc;strokeColor=#d6b656;" parent="1" vertex="1">
                    <mxGeometry x="440" y="290" width="120" height="60" as="geometry"/>
                </mxCell>
                <mxCell id="2eqvXjLkkKNTuH9ohz-s-14" value="Layer N" style="rounded=1;whiteSpace=wrap;html=1;direction=south;fillColor=#f5f5f5;fontColor=#333333;strokeColor=#666666;opacity=40;" parent="1" vertex="1">
                    <mxGeometry x="600" y="160" width="40" height="320" as="geometry"/>
                </mxCell>
                <mxCell id="2eqvXjLkkKNTuH9ohz-s-15" style="edgeStyle=orthogonalEdgeStyle;html=1;exitX=0.5;exitY=0;exitDx=0;exitDy=0;entryX=0.125;entryY=1;entryDx=0;entryDy=0;entryPerimeter=0;startArrow=none;startFill=0;endArrow=classic;endFill=1;" parent="1" edge="1">
                    <mxGeometry relative="1" as="geometry">
                        <mxPoint x="280" y="199.8800000000001" as="sourcePoint"/>
                        <mxPoint x="320" y="199.8800000000001" as="targetPoint"/>
                    </mxGeometry>
                </mxCell>
                <mxCell id="2eqvXjLkkKNTuH9ohz-s-16" style="edgeStyle=orthogonalEdgeStyle;html=1;exitX=0.5;exitY=0;exitDx=0;exitDy=0;entryX=0.5;entryY=1;entryDx=0;entryDy=0;startArrow=none;startFill=0;endArrow=classic;endFill=1;" parent="1" edge="1">
                    <mxGeometry relative="1" as="geometry">
                        <mxPoint x="280" y="319.8800000000001" as="sourcePoint"/>
                        <mxPoint x="320" y="319.8800000000001" as="targetPoint"/>
                    </mxGeometry>
                </mxCell>
                <mxCell id="2eqvXjLkkKNTuH9ohz-s-17" style="edgeStyle=orthogonalEdgeStyle;html=1;exitX=0.5;exitY=0;exitDx=0;exitDy=0;entryX=0.875;entryY=1.1;entryDx=0;entryDy=0;entryPerimeter=0;startArrow=none;startFill=0;endArrow=classic;endFill=1;" parent="1" edge="1">
                    <mxGeometry relative="1" as="geometry">
                        <mxPoint x="280" y="439.8800000000001" as="sourcePoint"/>
                        <mxPoint x="316" y="439.8800000000001" as="targetPoint"/>
                    </mxGeometry>
                </mxCell>
                <mxCell id="2eqvXjLkkKNTuH9ohz-s-18" value="Output" style="rounded=1;whiteSpace=wrap;html=1;fillColor=#e1d5e7;strokeColor=#9673a6;" parent="1" vertex="1">
                    <mxGeometry x="440" y="520" width="120" height="60" as="geometry"/>
                </mxCell>
                <mxCell id="2eqvXjLkkKNTuH9ohz-s-19" value="&lt;font style=&quot;font-size: 16px;&quot;&gt;...&lt;/font&gt;" style="text;html=1;strokeColor=none;fillColor=none;align=center;verticalAlign=middle;whiteSpace=wrap;rounded=0;opacity=40;" parent="1" vertex="1">
                    <mxGeometry x="645" y="300" width="30" height="30" as="geometry"/>
                </mxCell>
                <mxCell id="2eqvXjLkkKNTuH9ohz-s-20" style="edgeStyle=orthogonalEdgeStyle;html=1;exitX=0.5;exitY=1;exitDx=0;exitDy=0;fillColor=#f8cecc;strokeColor=#FF531F;strokeWidth=2;" parent="1" target="2eqvXjLkkKNTuH9ohz-s-13" edge="1">
                    <mxGeometry relative="1" as="geometry">
                        <mxPoint x="160" y="200" as="sourcePoint"/>
                        <Array as="points">
                            <mxPoint x="180" y="200"/>
                            <mxPoint x="180" y="120"/>
                            <mxPoint x="500" y="120"/>
                        </Array>
                    </mxGeometry>
                </mxCell>
                <mxCell id="2eqvXjLkkKNTuH9ohz-s-21" style="edgeStyle=orthogonalEdgeStyle;html=1;exitX=0.5;exitY=1;exitDx=0;exitDy=0;strokeColor=#FF531F;strokeWidth=2;" parent="1" edge="1">
                    <mxGeometry relative="1" as="geometry">
                        <mxPoint x="160" y="320" as="sourcePoint"/>
                        <mxPoint x="500" y="290" as="targetPoint"/>
                        <Array as="points">
                            <mxPoint x="180" y="320"/>
                            <mxPoint x="180" y="120"/>
                            <mxPoint x="500" y="120"/>
                            <mxPoint x="500" y="286"/>
                        </Array>
                    </mxGeometry>
                </mxCell>
                <mxCell id="2eqvXjLkkKNTuH9ohz-s-22" value="" style="edgeStyle=orthogonalEdgeStyle;html=1;exitX=0.5;exitY=1;exitDx=0;exitDy=0;strokeColor=#FF531F;strokeWidth=2;startArrow=none;" parent="1" source="2eqvXjLkkKNTuH9ohz-s-27" edge="1">
                    <mxGeometry relative="1" as="geometry">
                        <mxPoint x="160" y="440.0000000000001" as="sourcePoint"/>
                        <mxPoint x="500" y="290" as="targetPoint"/>
                        <Array as="points">
                            <mxPoint x="180" y="120"/>
                            <mxPoint x="500" y="120"/>
                        </Array>
                    </mxGeometry>
                </mxCell>
                <mxCell id="fFqRlI7mInDpZuGGlWFu-8" value="Softmax" style="edgeLabel;html=1;align=center;verticalAlign=middle;resizable=0;points=[];" parent="2eqvXjLkkKNTuH9ohz-s-22" vertex="1" connectable="0">
                    <mxGeometry x="-0.4323" y="1" relative="1" as="geometry">
                        <mxPoint as="offset"/>
                    </mxGeometry>
                </mxCell>
                <mxCell id="2eqvXjLkkKNTuH9ohz-s-23" style="edgeStyle=orthogonalEdgeStyle;html=1;exitX=0.5;exitY=0;exitDx=0;exitDy=0;entryX=0.125;entryY=1;entryDx=0;entryDy=0;entryPerimeter=0;startArrow=none;startFill=0;endArrow=classic;endFill=1;" parent="1" edge="1">
                    <mxGeometry relative="1" as="geometry">
                        <mxPoint x="120" y="199.8800000000001" as="sourcePoint"/>
                        <mxPoint x="160" y="199.8800000000001" as="targetPoint"/>
                    </mxGeometry>
                </mxCell>
                <mxCell id="2eqvXjLkkKNTuH9ohz-s-24" style="edgeStyle=orthogonalEdgeStyle;html=1;exitX=0.5;exitY=0;exitDx=0;exitDy=0;entryX=0.5;entryY=1;entryDx=0;entryDy=0;startArrow=none;startFill=0;endArrow=classic;endFill=1;" parent="1" edge="1">
                    <mxGeometry relative="1" as="geometry">
                        <mxPoint x="120" y="319.8800000000001" as="sourcePoint"/>
                        <mxPoint x="160" y="319.8800000000001" as="targetPoint"/>
                    </mxGeometry>
                </mxCell>
                <mxCell id="2eqvXjLkkKNTuH9ohz-s-25" style="edgeStyle=orthogonalEdgeStyle;html=1;exitX=0.5;exitY=0;exitDx=0;exitDy=0;entryX=0.875;entryY=1.1;entryDx=0;entryDy=0;entryPerimeter=0;startArrow=none;startFill=0;endArrow=classic;endFill=1;" parent="1" edge="1">
                    <mxGeometry relative="1" as="geometry">
                        <mxPoint x="120" y="439.8800000000001" as="sourcePoint"/>
                        <mxPoint x="156" y="439.8800000000001" as="targetPoint"/>
                    </mxGeometry>
                </mxCell>
                <mxCell id="2eqvXjLkkKNTuH9ohz-s-26" value="" style="edgeStyle=orthogonalEdgeStyle;html=1;exitX=0.5;exitY=1;exitDx=0;exitDy=0;strokeColor=#FF531F;strokeWidth=2;endArrow=none;" parent="1" target="2eqvXjLkkKNTuH9ohz-s-27" edge="1">
                    <mxGeometry relative="1" as="geometry">
                        <mxPoint x="160" y="440" as="sourcePoint"/>
                        <mxPoint x="500" y="290" as="targetPoint"/>
                        <Array as="points">
                            <mxPoint x="180" y="440"/>
                        </Array>
                    </mxGeometry>
                </mxCell>
                <mxCell id="2eqvXjLkkKNTuH9ohz-s-27" value="&lt;b&gt;&lt;i&gt;H&lt;/i&gt;&lt;/b&gt;&lt;sup&gt;1&lt;/sup&gt;" style="rounded=1;whiteSpace=wrap;html=1;direction=south;fillColor=#fff2cc;strokeColor=#d6b656;" parent="1" vertex="1">
                    <mxGeometry x="160" y="160" width="40" height="320" as="geometry"/>
                </mxCell>
                <mxCell id="2eqvXjLkkKNTuH9ohz-s-28" value="&lt;i style=&quot;&quot;&gt;&lt;b&gt;H&lt;/b&gt;&lt;span style=&quot;font-size: 10px;&quot;&gt;&lt;sup style=&quot;&quot;&gt;2&lt;/sup&gt;&lt;/span&gt;&lt;/i&gt;" style="rounded=1;whiteSpace=wrap;html=1;direction=south;fillColor=#fff2cc;strokeColor=#d6b656;" parent="1" vertex="1">
                    <mxGeometry x="320" y="160" width="40" height="320" as="geometry"/>
                </mxCell>
                <mxCell id="2eqvXjLkkKNTuH9ohz-s-29" value="Layer N-3" style="rounded=1;whiteSpace=wrap;html=1;direction=south;fillColor=#f5f5f5;fontColor=#333333;strokeColor=#666666;" parent="1" vertex="1">
                    <mxGeometry x="160" y="160" width="40" height="320" as="geometry"/>
                </mxCell>
                <mxCell id="2eqvXjLkkKNTuH9ohz-s-30" style="edgeStyle=orthogonalEdgeStyle;html=1;entryX=0.5;entryY=0;entryDx=0;entryDy=0;strokeColor=#FF531F;strokeWidth=2;" parent="1" source="2eqvXjLkkKNTuH9ohz-s-31" target="2eqvXjLkkKNTuH9ohz-s-13" edge="1">
                    <mxGeometry relative="1" as="geometry">
                        <Array as="points">
                            <mxPoint x="340" y="120"/>
                            <mxPoint x="500" y="120"/>
                        </Array>
                    </mxGeometry>
                </mxCell>
                <mxCell id="fFqRlI7mInDpZuGGlWFu-10" value="Softmax" style="edgeLabel;html=1;align=center;verticalAlign=middle;resizable=0;points=[];" parent="2eqvXjLkkKNTuH9ohz-s-30" vertex="1" connectable="0">
                    <mxGeometry x="-0.8955" relative="1" as="geometry">
                        <mxPoint as="offset"/>
                    </mxGeometry>
                </mxCell>
                <mxCell id="2eqvXjLkkKNTuH9ohz-s-31" value="Layer N-1" style="rounded=1;whiteSpace=wrap;html=1;direction=south;fillColor=#f5f5f5;fontColor=#333333;strokeColor=#666666;" parent="1" vertex="1">
                    <mxGeometry x="320" y="160" width="40" height="320" as="geometry"/>
                </mxCell>
                <mxCell id="2eqvXjLkkKNTuH9ohz-s-38" value="Yes" style="text;html=1;align=center;verticalAlign=middle;resizable=0;points=[];autosize=1;strokeColor=none;fillColor=none;opacity=40;" parent="1" vertex="1">
                    <mxGeometry x="500" y="415" width="40" height="30" as="geometry"/>
                </mxCell>
                <mxCell id="MmRWVsQg2RuSS2rI3JeQ-1" value="Layer N-4" style="rounded=1;whiteSpace=wrap;html=1;direction=south;fillColor=#f5f5f5;fontColor=#333333;strokeColor=#666666;" parent="1" vertex="1">
                    <mxGeometry x="80" y="160" width="40" height="320" as="geometry"/>
                </mxCell>
                <mxCell id="MmRWVsQg2RuSS2rI3JeQ-2" value="&lt;font style=&quot;font-size: 16px;&quot;&gt;...&lt;/font&gt;" style="text;html=1;strokeColor=none;fillColor=none;align=center;verticalAlign=middle;whiteSpace=wrap;rounded=0;opacity=40;" parent="1" vertex="1">
                    <mxGeometry x="40" y="300" width="30" height="30" as="geometry"/>
                </mxCell>
                <mxCell id="MmRWVsQg2RuSS2rI3JeQ-3" value="Output" style="rounded=1;whiteSpace=wrap;html=1;fillColor=#e1d5e7;strokeColor=#9673a6;" parent="1" vertex="1">
                    <mxGeometry x="760" y="290" width="120" height="60" as="geometry"/>
                </mxCell>
                <mxCell id="fFqRlI7mInDpZuGGlWFu-1" style="edgeStyle=orthogonalEdgeStyle;html=1;exitX=0.5;exitY=0;exitDx=0;exitDy=0;entryX=0;entryY=0.5;entryDx=0;entryDy=0;fontSize=16;startArrow=none;startFill=0;endArrow=classic;endFill=1;dashed=1;opacity=40;" parent="1" edge="1">
                    <mxGeometry relative="1" as="geometry">
                        <mxPoint x="681" y="200" as="sourcePoint"/>
                        <mxPoint x="760" y="320" as="targetPoint"/>
                        <Array as="points">
                            <mxPoint x="720" y="200"/>
                            <mxPoint x="720" y="320"/>
                        </Array>
                    </mxGeometry>
                </mxCell>
                <mxCell id="fFqRlI7mInDpZuGGlWFu-2" style="edgeStyle=orthogonalEdgeStyle;html=1;entryX=0;entryY=0.5;entryDx=0;entryDy=0;fontSize=16;startArrow=none;startFill=0;endArrow=classic;endFill=1;dashed=1;opacity=40;" parent="1" edge="1">
                    <mxGeometry relative="1" as="geometry">
                        <mxPoint x="681" y="320" as="sourcePoint"/>
                        <mxPoint x="760" y="320" as="targetPoint"/>
                    </mxGeometry>
                </mxCell>
                <mxCell id="fFqRlI7mInDpZuGGlWFu-3" style="edgeStyle=orthogonalEdgeStyle;html=1;exitX=0.5;exitY=0;exitDx=0;exitDy=0;entryX=0;entryY=0.5;entryDx=0;entryDy=0;fontSize=16;startArrow=none;startFill=0;endArrow=classic;endFill=1;dashed=1;opacity=40;" parent="1" edge="1">
                    <mxGeometry relative="1" as="geometry">
                        <mxPoint x="681" y="440" as="sourcePoint"/>
                        <mxPoint x="760" y="320" as="targetPoint"/>
                        <Array as="points">
                            <mxPoint x="720" y="440"/>
                            <mxPoint x="720" y="320"/>
                        </Array>
                    </mxGeometry>
                </mxCell>
            </root>
        </mxGraphModel>
    </diagram>
    <diagram id="CXtS9UVRrU43fGgCLmm4" name="Page-7">
        <mxGraphModel dx="908" dy="657" grid="1" gridSize="10" guides="1" tooltips="1" connect="1" arrows="1" fold="1" page="1" pageScale="1" pageWidth="850" pageHeight="1100" math="0" shadow="0">
            <root>
                <mxCell id="0"/>
                <mxCell id="1" parent="0"/>
                <mxCell id="JQwVWHky48NivytpW30K-1" style="edgeStyle=orthogonalEdgeStyle;html=1;exitX=0.5;exitY=0;exitDx=0;exitDy=0;entryX=0.125;entryY=1;entryDx=0;entryDy=0;entryPerimeter=0;startArrow=none;startFill=0;endArrow=classic;endFill=1;" parent="1" target="JQwVWHky48NivytpW30K-6" edge="1">
                    <mxGeometry relative="1" as="geometry">
                        <mxPoint x="200" y="200" as="sourcePoint"/>
                    </mxGeometry>
                </mxCell>
                <mxCell id="JQwVWHky48NivytpW30K-2" style="edgeStyle=orthogonalEdgeStyle;html=1;exitX=0.5;exitY=0;exitDx=0;exitDy=0;entryX=0.5;entryY=1;entryDx=0;entryDy=0;startArrow=none;startFill=0;endArrow=classic;endFill=1;" parent="1" target="JQwVWHky48NivytpW30K-6" edge="1">
                    <mxGeometry relative="1" as="geometry">
                        <mxPoint x="200" y="320" as="sourcePoint"/>
                    </mxGeometry>
                </mxCell>
                <mxCell id="JQwVWHky48NivytpW30K-3" style="edgeStyle=orthogonalEdgeStyle;html=1;exitX=0.5;exitY=0;exitDx=0;exitDy=0;entryX=0.875;entryY=1.1;entryDx=0;entryDy=0;entryPerimeter=0;startArrow=none;startFill=0;endArrow=classic;endFill=1;" parent="1" target="JQwVWHky48NivytpW30K-6" edge="1">
                    <mxGeometry relative="1" as="geometry">
                        <mxPoint x="200" y="440" as="sourcePoint"/>
                    </mxGeometry>
                </mxCell>
                <mxCell id="JQwVWHky48NivytpW30K-4" style="edgeStyle=orthogonalEdgeStyle;html=1;entryX=0.5;entryY=0;entryDx=0;entryDy=0;strokeColor=#FF531F;strokeWidth=2;" parent="1" source="JQwVWHky48NivytpW30K-6" target="JQwVWHky48NivytpW30K-14" edge="1">
                    <mxGeometry relative="1" as="geometry">
                        <Array as="points">
                            <mxPoint x="260" y="120"/>
                            <mxPoint x="500" y="120"/>
                        </Array>
                    </mxGeometry>
                </mxCell>
                <mxCell id="JQwVWHky48NivytpW30K-6" value="Layer N-2" style="rounded=1;whiteSpace=wrap;html=1;direction=south;fillColor=#f5f5f5;fontColor=#333333;strokeColor=#666666;" parent="1" vertex="1">
                    <mxGeometry x="240" y="160" width="40" height="320" as="geometry"/>
                </mxCell>
                <mxCell id="JQwVWHky48NivytpW30K-7" style="edgeStyle=orthogonalEdgeStyle;html=1;exitX=0.5;exitY=0;exitDx=0;exitDy=0;entryX=0;entryY=0.5;entryDx=0;entryDy=0;startArrow=none;startFill=0;endArrow=classic;endFill=1;" parent="1" target="JQwVWHky48NivytpW30K-14" edge="1">
                    <mxGeometry relative="1" as="geometry">
                        <mxPoint x="360" y="200" as="sourcePoint"/>
                    </mxGeometry>
                </mxCell>
                <mxCell id="JQwVWHky48NivytpW30K-8" style="edgeStyle=orthogonalEdgeStyle;html=1;exitX=0.5;exitY=0;exitDx=0;exitDy=0;entryX=0;entryY=0.5;entryDx=0;entryDy=0;startArrow=none;startFill=0;endArrow=classic;endFill=1;" parent="1" target="JQwVWHky48NivytpW30K-14" edge="1">
                    <mxGeometry relative="1" as="geometry">
                        <mxPoint x="360" y="320" as="sourcePoint"/>
                    </mxGeometry>
                </mxCell>
                <mxCell id="JQwVWHky48NivytpW30K-9" style="edgeStyle=orthogonalEdgeStyle;html=1;exitX=0.5;exitY=0;exitDx=0;exitDy=0;entryX=0;entryY=0.5;entryDx=0;entryDy=0;startArrow=none;startFill=0;endArrow=classic;endFill=1;" parent="1" target="JQwVWHky48NivytpW30K-14" edge="1">
                    <mxGeometry relative="1" as="geometry">
                        <mxPoint x="360" y="440" as="sourcePoint"/>
                    </mxGeometry>
                </mxCell>
                <mxCell id="JQwVWHky48NivytpW30K-10" style="edgeStyle=orthogonalEdgeStyle;html=1;exitX=1;exitY=0.5;exitDx=0;exitDy=0;startArrow=none;startFill=0;endArrow=classic;endFill=1;entryX=0.5;entryY=1;entryDx=0;entryDy=0;dashed=1;opacity=40;" parent="1" source="JQwVWHky48NivytpW30K-14" target="JQwVWHky48NivytpW30K-15" edge="1">
                    <mxGeometry relative="1" as="geometry">
                        <mxPoint x="450" y="340" as="targetPoint"/>
                    </mxGeometry>
                </mxCell>
                <mxCell id="JQwVWHky48NivytpW30K-11" style="edgeStyle=orthogonalEdgeStyle;html=1;exitX=1;exitY=0.5;exitDx=0;exitDy=0;entryX=0.122;entryY=1.025;entryDx=0;entryDy=0;entryPerimeter=0;startArrow=none;startFill=0;endArrow=classic;endFill=1;dashed=1;opacity=40;" parent="1" source="JQwVWHky48NivytpW30K-14" target="JQwVWHky48NivytpW30K-15" edge="1">
                    <mxGeometry relative="1" as="geometry"/>
                </mxCell>
                <mxCell id="JQwVWHky48NivytpW30K-12" style="edgeStyle=orthogonalEdgeStyle;html=1;exitX=1;exitY=0.5;exitDx=0;exitDy=0;entryX=0.878;entryY=1.05;entryDx=0;entryDy=0;entryPerimeter=0;startArrow=none;startFill=0;endArrow=classic;endFill=1;dashed=1;opacity=40;" parent="1" source="JQwVWHky48NivytpW30K-14" target="JQwVWHky48NivytpW30K-15" edge="1">
                    <mxGeometry relative="1" as="geometry"/>
                </mxCell>
                <mxCell id="JQwVWHky48NivytpW30K-13" style="edgeStyle=orthogonalEdgeStyle;html=1;exitX=0.5;exitY=1;exitDx=0;exitDy=0;startArrow=none;startFill=0;endArrow=classic;endFill=1;" parent="1" source="JQwVWHky48NivytpW30K-14" target="JQwVWHky48NivytpW30K-19" edge="1">
                    <mxGeometry relative="1" as="geometry"/>
                </mxCell>
                <mxCell id="JQwVWHky48NivytpW30K-14" value="MLP" style="rounded=1;whiteSpace=wrap;html=1;fillColor=#fff2cc;strokeColor=#d6b656;" parent="1" vertex="1">
                    <mxGeometry x="440" y="290" width="120" height="60" as="geometry"/>
                </mxCell>
                <mxCell id="JQwVWHky48NivytpW30K-15" value="Layer N" style="rounded=1;whiteSpace=wrap;html=1;direction=south;fillColor=#f5f5f5;fontColor=#333333;strokeColor=#666666;opacity=40;" parent="1" vertex="1">
                    <mxGeometry x="600" y="160" width="40" height="320" as="geometry"/>
                </mxCell>
                <mxCell id="JQwVWHky48NivytpW30K-16" style="edgeStyle=orthogonalEdgeStyle;html=1;exitX=0.5;exitY=0;exitDx=0;exitDy=0;entryX=0.125;entryY=1;entryDx=0;entryDy=0;entryPerimeter=0;startArrow=none;startFill=0;endArrow=classic;endFill=1;" parent="1" edge="1">
                    <mxGeometry relative="1" as="geometry">
                        <mxPoint x="280" y="199.8800000000001" as="sourcePoint"/>
                        <mxPoint x="320" y="199.8800000000001" as="targetPoint"/>
                    </mxGeometry>
                </mxCell>
                <mxCell id="JQwVWHky48NivytpW30K-17" style="edgeStyle=orthogonalEdgeStyle;html=1;exitX=0.5;exitY=0;exitDx=0;exitDy=0;entryX=0.5;entryY=1;entryDx=0;entryDy=0;startArrow=none;startFill=0;endArrow=classic;endFill=1;" parent="1" edge="1">
                    <mxGeometry relative="1" as="geometry">
                        <mxPoint x="280" y="319.8800000000001" as="sourcePoint"/>
                        <mxPoint x="320" y="319.8800000000001" as="targetPoint"/>
                    </mxGeometry>
                </mxCell>
                <mxCell id="JQwVWHky48NivytpW30K-18" style="edgeStyle=orthogonalEdgeStyle;html=1;exitX=0.5;exitY=0;exitDx=0;exitDy=0;entryX=0.875;entryY=1.1;entryDx=0;entryDy=0;entryPerimeter=0;startArrow=none;startFill=0;endArrow=classic;endFill=1;" parent="1" edge="1">
                    <mxGeometry relative="1" as="geometry">
                        <mxPoint x="280" y="439.8800000000001" as="sourcePoint"/>
                        <mxPoint x="316" y="439.8800000000001" as="targetPoint"/>
                    </mxGeometry>
                </mxCell>
                <mxCell id="JQwVWHky48NivytpW30K-19" value="Output" style="rounded=1;whiteSpace=wrap;html=1;fillColor=#e1d5e7;strokeColor=#9673a6;" parent="1" vertex="1">
                    <mxGeometry x="440" y="520" width="120" height="60" as="geometry"/>
                </mxCell>
                <mxCell id="JQwVWHky48NivytpW30K-20" value="&lt;font style=&quot;font-size: 16px;&quot;&gt;...&lt;/font&gt;" style="text;html=1;strokeColor=none;fillColor=none;align=center;verticalAlign=middle;whiteSpace=wrap;rounded=0;opacity=40;" parent="1" vertex="1">
                    <mxGeometry x="645" y="300" width="30" height="30" as="geometry"/>
                </mxCell>
                <mxCell id="JQwVWHky48NivytpW30K-21" style="edgeStyle=orthogonalEdgeStyle;html=1;exitX=0.5;exitY=1;exitDx=0;exitDy=0;fillColor=#f8cecc;strokeColor=#FF531F;strokeWidth=2;" parent="1" target="JQwVWHky48NivytpW30K-14" edge="1">
                    <mxGeometry relative="1" as="geometry">
                        <mxPoint x="160" y="200" as="sourcePoint"/>
                        <Array as="points">
                            <mxPoint x="180" y="200"/>
                            <mxPoint x="180" y="120"/>
                            <mxPoint x="500" y="120"/>
                        </Array>
                    </mxGeometry>
                </mxCell>
                <mxCell id="JQwVWHky48NivytpW30K-22" style="edgeStyle=orthogonalEdgeStyle;html=1;exitX=0.5;exitY=1;exitDx=0;exitDy=0;strokeColor=#FF531F;strokeWidth=2;" parent="1" edge="1">
                    <mxGeometry relative="1" as="geometry">
                        <mxPoint x="160" y="320" as="sourcePoint"/>
                        <mxPoint x="500" y="290" as="targetPoint"/>
                        <Array as="points">
                            <mxPoint x="180" y="320"/>
                            <mxPoint x="180" y="120"/>
                            <mxPoint x="500" y="120"/>
                            <mxPoint x="500" y="286"/>
                        </Array>
                    </mxGeometry>
                </mxCell>
                <mxCell id="JQwVWHky48NivytpW30K-23" value="" style="edgeStyle=orthogonalEdgeStyle;html=1;exitX=0.5;exitY=1;exitDx=0;exitDy=0;strokeColor=#FF531F;strokeWidth=2;startArrow=none;" parent="1" source="JQwVWHky48NivytpW30K-29" edge="1">
                    <mxGeometry relative="1" as="geometry">
                        <mxPoint x="160" y="440.0000000000001" as="sourcePoint"/>
                        <mxPoint x="500" y="290" as="targetPoint"/>
                        <Array as="points">
                            <mxPoint x="180" y="120"/>
                            <mxPoint x="500" y="120"/>
                        </Array>
                    </mxGeometry>
                </mxCell>
                <mxCell id="JQwVWHky48NivytpW30K-25" style="edgeStyle=orthogonalEdgeStyle;html=1;exitX=0.5;exitY=0;exitDx=0;exitDy=0;entryX=0.125;entryY=1;entryDx=0;entryDy=0;entryPerimeter=0;startArrow=none;startFill=0;endArrow=classic;endFill=1;" parent="1" edge="1">
                    <mxGeometry relative="1" as="geometry">
                        <mxPoint x="120" y="199.8800000000001" as="sourcePoint"/>
                        <mxPoint x="160" y="199.8800000000001" as="targetPoint"/>
                    </mxGeometry>
                </mxCell>
                <mxCell id="JQwVWHky48NivytpW30K-26" style="edgeStyle=orthogonalEdgeStyle;html=1;exitX=0.5;exitY=0;exitDx=0;exitDy=0;entryX=0.5;entryY=1;entryDx=0;entryDy=0;startArrow=none;startFill=0;endArrow=classic;endFill=1;" parent="1" edge="1">
                    <mxGeometry relative="1" as="geometry">
                        <mxPoint x="120" y="319.8800000000001" as="sourcePoint"/>
                        <mxPoint x="160" y="319.8800000000001" as="targetPoint"/>
                    </mxGeometry>
                </mxCell>
                <mxCell id="JQwVWHky48NivytpW30K-27" style="edgeStyle=orthogonalEdgeStyle;html=1;exitX=0.5;exitY=0;exitDx=0;exitDy=0;entryX=0.875;entryY=1.1;entryDx=0;entryDy=0;entryPerimeter=0;startArrow=none;startFill=0;endArrow=classic;endFill=1;" parent="1" edge="1">
                    <mxGeometry relative="1" as="geometry">
                        <mxPoint x="120" y="439.8800000000001" as="sourcePoint"/>
                        <mxPoint x="156" y="439.8800000000001" as="targetPoint"/>
                    </mxGeometry>
                </mxCell>
                <mxCell id="JQwVWHky48NivytpW30K-28" value="" style="edgeStyle=orthogonalEdgeStyle;html=1;exitX=0.5;exitY=1;exitDx=0;exitDy=0;strokeColor=#FF531F;strokeWidth=2;endArrow=none;" parent="1" target="JQwVWHky48NivytpW30K-29" edge="1">
                    <mxGeometry relative="1" as="geometry">
                        <mxPoint x="160" y="440" as="sourcePoint"/>
                        <mxPoint x="500" y="290" as="targetPoint"/>
                        <Array as="points">
                            <mxPoint x="180" y="440"/>
                        </Array>
                    </mxGeometry>
                </mxCell>
                <mxCell id="JQwVWHky48NivytpW30K-29" value="&lt;b&gt;&lt;i&gt;H&lt;/i&gt;&lt;/b&gt;&lt;sup&gt;1&lt;/sup&gt;" style="rounded=1;whiteSpace=wrap;html=1;direction=south;fillColor=#fff2cc;strokeColor=#d6b656;" parent="1" vertex="1">
                    <mxGeometry x="160" y="160" width="40" height="320" as="geometry"/>
                </mxCell>
                <mxCell id="JQwVWHky48NivytpW30K-30" value="&lt;i style=&quot;&quot;&gt;&lt;b&gt;H&lt;/b&gt;&lt;span style=&quot;font-size: 10px;&quot;&gt;&lt;sup style=&quot;&quot;&gt;2&lt;/sup&gt;&lt;/span&gt;&lt;/i&gt;" style="rounded=1;whiteSpace=wrap;html=1;direction=south;fillColor=#fff2cc;strokeColor=#d6b656;" parent="1" vertex="1">
                    <mxGeometry x="320" y="160" width="40" height="320" as="geometry"/>
                </mxCell>
                <mxCell id="JQwVWHky48NivytpW30K-31" value="Layer N-3" style="rounded=1;whiteSpace=wrap;html=1;direction=south;fillColor=#f5f5f5;fontColor=#333333;strokeColor=#666666;" parent="1" vertex="1">
                    <mxGeometry x="160" y="160" width="40" height="320" as="geometry"/>
                </mxCell>
                <mxCell id="JQwVWHky48NivytpW30K-32" style="edgeStyle=orthogonalEdgeStyle;html=1;entryX=0.5;entryY=0;entryDx=0;entryDy=0;strokeColor=#FF531F;strokeWidth=2;startArrow=none;" parent="1" source="JQwVWHky48NivytpW30K-43" target="JQwVWHky48NivytpW30K-14" edge="1">
                    <mxGeometry relative="1" as="geometry">
                        <Array as="points">
                            <mxPoint x="340" y="120"/>
                            <mxPoint x="500" y="120"/>
                        </Array>
                    </mxGeometry>
                </mxCell>
                <mxCell id="JQwVWHky48NivytpW30K-34" value="Layer N-1" style="rounded=1;whiteSpace=wrap;html=1;direction=south;fillColor=#f5f5f5;fontColor=#333333;strokeColor=#666666;" parent="1" vertex="1">
                    <mxGeometry x="320" y="160" width="40" height="320" as="geometry"/>
                </mxCell>
                <mxCell id="JQwVWHky48NivytpW30K-35" value="Yes" style="text;html=1;align=center;verticalAlign=middle;resizable=0;points=[];autosize=1;strokeColor=none;fillColor=none;opacity=40;" parent="1" vertex="1">
                    <mxGeometry x="500" y="415" width="40" height="30" as="geometry"/>
                </mxCell>
                <mxCell id="JQwVWHky48NivytpW30K-36" value="Layer N-4" style="rounded=1;whiteSpace=wrap;html=1;direction=south;fillColor=#f5f5f5;fontColor=#333333;strokeColor=#666666;" parent="1" vertex="1">
                    <mxGeometry x="80" y="160" width="40" height="320" as="geometry"/>
                </mxCell>
                <mxCell id="JQwVWHky48NivytpW30K-37" value="&lt;font style=&quot;font-size: 16px;&quot;&gt;...&lt;/font&gt;" style="text;html=1;strokeColor=none;fillColor=none;align=center;verticalAlign=middle;whiteSpace=wrap;rounded=0;opacity=40;" parent="1" vertex="1">
                    <mxGeometry x="40" y="300" width="30" height="30" as="geometry"/>
                </mxCell>
                <mxCell id="JQwVWHky48NivytpW30K-38" value="Output" style="rounded=1;whiteSpace=wrap;html=1;fillColor=#e1d5e7;strokeColor=#9673a6;" parent="1" vertex="1">
                    <mxGeometry x="760" y="290" width="120" height="60" as="geometry"/>
                </mxCell>
                <mxCell id="JQwVWHky48NivytpW30K-39" style="edgeStyle=orthogonalEdgeStyle;html=1;exitX=0.5;exitY=0;exitDx=0;exitDy=0;entryX=0;entryY=0.5;entryDx=0;entryDy=0;fontSize=16;startArrow=none;startFill=0;endArrow=classic;endFill=1;dashed=1;opacity=40;" parent="1" edge="1">
                    <mxGeometry relative="1" as="geometry">
                        <mxPoint x="681" y="200" as="sourcePoint"/>
                        <mxPoint x="760" y="320" as="targetPoint"/>
                        <Array as="points">
                            <mxPoint x="720" y="200"/>
                            <mxPoint x="720" y="320"/>
                        </Array>
                    </mxGeometry>
                </mxCell>
                <mxCell id="JQwVWHky48NivytpW30K-40" style="edgeStyle=orthogonalEdgeStyle;html=1;entryX=0;entryY=0.5;entryDx=0;entryDy=0;fontSize=16;startArrow=none;startFill=0;endArrow=classic;endFill=1;dashed=1;opacity=40;" parent="1" edge="1">
                    <mxGeometry relative="1" as="geometry">
                        <mxPoint x="681" y="320" as="sourcePoint"/>
                        <mxPoint x="760" y="320" as="targetPoint"/>
                    </mxGeometry>
                </mxCell>
                <mxCell id="JQwVWHky48NivytpW30K-41" style="edgeStyle=orthogonalEdgeStyle;html=1;exitX=0.5;exitY=0;exitDx=0;exitDy=0;entryX=0;entryY=0.5;entryDx=0;entryDy=0;fontSize=16;startArrow=none;startFill=0;endArrow=classic;endFill=1;dashed=1;opacity=40;" parent="1" edge="1">
                    <mxGeometry relative="1" as="geometry">
                        <mxPoint x="681" y="440" as="sourcePoint"/>
                        <mxPoint x="760" y="320" as="targetPoint"/>
                        <Array as="points">
                            <mxPoint x="720" y="440"/>
                            <mxPoint x="720" y="320"/>
                        </Array>
                    </mxGeometry>
                </mxCell>
                <mxCell id="JQwVWHky48NivytpW30K-44" value="" style="edgeStyle=orthogonalEdgeStyle;html=1;entryX=0.5;entryY=0;entryDx=0;entryDy=0;strokeColor=#FF531F;strokeWidth=2;endArrow=none;" parent="1" source="JQwVWHky48NivytpW30K-34" target="JQwVWHky48NivytpW30K-14" edge="1">
                    <mxGeometry relative="1" as="geometry">
                        <Array as="points">
                            <mxPoint x="340" y="120"/>
                            <mxPoint x="500" y="120"/>
                        </Array>
                        <mxPoint x="340" y="160" as="sourcePoint"/>
                        <mxPoint x="500" y="290" as="targetPoint"/>
                    </mxGeometry>
                </mxCell>
                <mxCell id="JQwVWHky48NivytpW30K-43" value="" style="shape=orEllipse;perimeter=ellipsePerimeter;whiteSpace=wrap;html=1;backgroundOutline=1;" parent="1" vertex="1">
                    <mxGeometry x="485" y="104" width="30" height="30" as="geometry"/>
                </mxCell>
                <mxCell id="JQwVWHky48NivytpW30K-47" value="Concatenation" style="text;html=1;strokeColor=none;fillColor=none;align=center;verticalAlign=middle;whiteSpace=wrap;rounded=0;" parent="1" vertex="1">
                    <mxGeometry x="470" y="74" width="60" height="30" as="geometry"/>
                </mxCell>
            </root>
        </mxGraphModel>
    </diagram>
    <diagram id="XRKONnL3blPsWF3KUlMJ" name="Page-6">
        <mxGraphModel dx="681" dy="493" grid="1" gridSize="10" guides="1" tooltips="1" connect="1" arrows="1" fold="1" page="1" pageScale="1" pageWidth="850" pageHeight="1100" math="0" shadow="0">
            <root>
                <mxCell id="0"/>
                <mxCell id="1" parent="0"/>
                <mxCell id="oF5Y_QGtGQ3SGLVZGm5H-1" style="edgeStyle=orthogonalEdgeStyle;html=1;exitX=0.5;exitY=0;exitDx=0;exitDy=0;entryX=0.125;entryY=1;entryDx=0;entryDy=0;entryPerimeter=0;startArrow=none;startFill=0;endArrow=classic;endFill=1;" parent="1" target="oF5Y_QGtGQ3SGLVZGm5H-6" edge="1">
                    <mxGeometry relative="1" as="geometry">
                        <mxPoint x="200" y="200" as="sourcePoint"/>
                    </mxGeometry>
                </mxCell>
                <mxCell id="oF5Y_QGtGQ3SGLVZGm5H-2" style="edgeStyle=orthogonalEdgeStyle;html=1;exitX=0.5;exitY=0;exitDx=0;exitDy=0;entryX=0.5;entryY=1;entryDx=0;entryDy=0;startArrow=none;startFill=0;endArrow=classic;endFill=1;" parent="1" target="oF5Y_QGtGQ3SGLVZGm5H-6" edge="1">
                    <mxGeometry relative="1" as="geometry">
                        <mxPoint x="200" y="320" as="sourcePoint"/>
                    </mxGeometry>
                </mxCell>
                <mxCell id="oF5Y_QGtGQ3SGLVZGm5H-3" style="edgeStyle=orthogonalEdgeStyle;html=1;exitX=0.5;exitY=0;exitDx=0;exitDy=0;entryX=0.875;entryY=1.1;entryDx=0;entryDy=0;entryPerimeter=0;startArrow=none;startFill=0;endArrow=classic;endFill=1;" parent="1" target="oF5Y_QGtGQ3SGLVZGm5H-6" edge="1">
                    <mxGeometry relative="1" as="geometry">
                        <mxPoint x="200" y="440" as="sourcePoint"/>
                    </mxGeometry>
                </mxCell>
                <mxCell id="oF5Y_QGtGQ3SGLVZGm5H-6" value="Layer N-2" style="rounded=1;whiteSpace=wrap;html=1;direction=south;fillColor=#f5f5f5;fontColor=#333333;strokeColor=#666666;" parent="1" vertex="1">
                    <mxGeometry x="240" y="160" width="40" height="320" as="geometry"/>
                </mxCell>
                <mxCell id="oF5Y_QGtGQ3SGLVZGm5H-7" style="edgeStyle=orthogonalEdgeStyle;html=1;exitX=0.5;exitY=0;exitDx=0;exitDy=0;entryX=0;entryY=0.5;entryDx=0;entryDy=0;startArrow=none;startFill=0;endArrow=classic;endFill=1;" parent="1" target="oF5Y_QGtGQ3SGLVZGm5H-14" edge="1">
                    <mxGeometry relative="1" as="geometry">
                        <mxPoint x="360" y="200" as="sourcePoint"/>
                    </mxGeometry>
                </mxCell>
                <mxCell id="oF5Y_QGtGQ3SGLVZGm5H-8" style="edgeStyle=orthogonalEdgeStyle;html=1;exitX=0.5;exitY=0;exitDx=0;exitDy=0;entryX=0;entryY=0.5;entryDx=0;entryDy=0;startArrow=none;startFill=0;endArrow=classic;endFill=1;" parent="1" target="oF5Y_QGtGQ3SGLVZGm5H-14" edge="1">
                    <mxGeometry relative="1" as="geometry">
                        <mxPoint x="360" y="320" as="sourcePoint"/>
                    </mxGeometry>
                </mxCell>
                <mxCell id="oF5Y_QGtGQ3SGLVZGm5H-9" style="edgeStyle=orthogonalEdgeStyle;html=1;exitX=0.5;exitY=0;exitDx=0;exitDy=0;entryX=0;entryY=0.5;entryDx=0;entryDy=0;startArrow=none;startFill=0;endArrow=classic;endFill=1;" parent="1" target="oF5Y_QGtGQ3SGLVZGm5H-14" edge="1">
                    <mxGeometry relative="1" as="geometry">
                        <mxPoint x="360" y="440" as="sourcePoint"/>
                    </mxGeometry>
                </mxCell>
                <mxCell id="oF5Y_QGtGQ3SGLVZGm5H-10" style="edgeStyle=orthogonalEdgeStyle;html=1;exitX=1;exitY=0.5;exitDx=0;exitDy=0;startArrow=none;startFill=0;endArrow=classic;endFill=1;entryX=0.5;entryY=1;entryDx=0;entryDy=0;dashed=1;opacity=40;" parent="1" source="oF5Y_QGtGQ3SGLVZGm5H-14" target="oF5Y_QGtGQ3SGLVZGm5H-15" edge="1">
                    <mxGeometry relative="1" as="geometry">
                        <mxPoint x="450" y="340" as="targetPoint"/>
                    </mxGeometry>
                </mxCell>
                <mxCell id="oF5Y_QGtGQ3SGLVZGm5H-11" style="edgeStyle=orthogonalEdgeStyle;html=1;exitX=1;exitY=0.5;exitDx=0;exitDy=0;entryX=0.122;entryY=1.025;entryDx=0;entryDy=0;entryPerimeter=0;startArrow=none;startFill=0;endArrow=classic;endFill=1;dashed=1;opacity=40;" parent="1" source="oF5Y_QGtGQ3SGLVZGm5H-14" target="oF5Y_QGtGQ3SGLVZGm5H-15" edge="1">
                    <mxGeometry relative="1" as="geometry"/>
                </mxCell>
                <mxCell id="oF5Y_QGtGQ3SGLVZGm5H-12" style="edgeStyle=orthogonalEdgeStyle;html=1;exitX=1;exitY=0.5;exitDx=0;exitDy=0;entryX=0.878;entryY=1.05;entryDx=0;entryDy=0;entryPerimeter=0;startArrow=none;startFill=0;endArrow=classic;endFill=1;dashed=1;opacity=40;" parent="1" source="oF5Y_QGtGQ3SGLVZGm5H-14" target="oF5Y_QGtGQ3SGLVZGm5H-15" edge="1">
                    <mxGeometry relative="1" as="geometry"/>
                </mxCell>
                <mxCell id="oF5Y_QGtGQ3SGLVZGm5H-13" style="edgeStyle=orthogonalEdgeStyle;html=1;exitX=0.5;exitY=1;exitDx=0;exitDy=0;startArrow=none;startFill=0;endArrow=classic;endFill=1;" parent="1" source="oF5Y_QGtGQ3SGLVZGm5H-14" target="oF5Y_QGtGQ3SGLVZGm5H-19" edge="1">
                    <mxGeometry relative="1" as="geometry"/>
                </mxCell>
                <mxCell id="oF5Y_QGtGQ3SGLVZGm5H-14" value="Difference between top 2 probabilities &amp;gt; &lt;i&gt;c&lt;/i&gt;" style="rounded=1;whiteSpace=wrap;html=1;fillColor=#fff2cc;strokeColor=#d6b656;" parent="1" vertex="1">
                    <mxGeometry x="440" y="290" width="120" height="60" as="geometry"/>
                </mxCell>
                <mxCell id="oF5Y_QGtGQ3SGLVZGm5H-15" value="Layer N" style="rounded=1;whiteSpace=wrap;html=1;direction=south;fillColor=#f5f5f5;fontColor=#333333;strokeColor=#666666;opacity=40;" parent="1" vertex="1">
                    <mxGeometry x="600" y="160" width="40" height="320" as="geometry"/>
                </mxCell>
                <mxCell id="oF5Y_QGtGQ3SGLVZGm5H-16" style="edgeStyle=orthogonalEdgeStyle;html=1;exitX=0.5;exitY=0;exitDx=0;exitDy=0;entryX=0.125;entryY=1;entryDx=0;entryDy=0;entryPerimeter=0;startArrow=none;startFill=0;endArrow=classic;endFill=1;" parent="1" edge="1">
                    <mxGeometry relative="1" as="geometry">
                        <mxPoint x="280" y="199.8800000000001" as="sourcePoint"/>
                        <mxPoint x="320" y="199.8800000000001" as="targetPoint"/>
                    </mxGeometry>
                </mxCell>
                <mxCell id="oF5Y_QGtGQ3SGLVZGm5H-17" style="edgeStyle=orthogonalEdgeStyle;html=1;exitX=0.5;exitY=0;exitDx=0;exitDy=0;entryX=0.5;entryY=1;entryDx=0;entryDy=0;startArrow=none;startFill=0;endArrow=classic;endFill=1;" parent="1" edge="1">
                    <mxGeometry relative="1" as="geometry">
                        <mxPoint x="280" y="319.8800000000001" as="sourcePoint"/>
                        <mxPoint x="320" y="319.8800000000001" as="targetPoint"/>
                    </mxGeometry>
                </mxCell>
                <mxCell id="oF5Y_QGtGQ3SGLVZGm5H-18" style="edgeStyle=orthogonalEdgeStyle;html=1;exitX=0.5;exitY=0;exitDx=0;exitDy=0;entryX=0.875;entryY=1.1;entryDx=0;entryDy=0;entryPerimeter=0;startArrow=none;startFill=0;endArrow=classic;endFill=1;" parent="1" edge="1">
                    <mxGeometry relative="1" as="geometry">
                        <mxPoint x="280" y="439.8800000000001" as="sourcePoint"/>
                        <mxPoint x="316" y="439.8800000000001" as="targetPoint"/>
                    </mxGeometry>
                </mxCell>
                <mxCell id="oF5Y_QGtGQ3SGLVZGm5H-19" value="Output" style="rounded=1;whiteSpace=wrap;html=1;fillColor=#e1d5e7;strokeColor=#9673a6;" parent="1" vertex="1">
                    <mxGeometry x="440" y="520" width="120" height="60" as="geometry"/>
                </mxCell>
                <mxCell id="oF5Y_QGtGQ3SGLVZGm5H-20" value="&lt;font style=&quot;font-size: 16px;&quot;&gt;...&lt;/font&gt;" style="text;html=1;strokeColor=none;fillColor=none;align=center;verticalAlign=middle;whiteSpace=wrap;rounded=0;opacity=40;" parent="1" vertex="1">
                    <mxGeometry x="645" y="300" width="30" height="30" as="geometry"/>
                </mxCell>
                <mxCell id="oF5Y_QGtGQ3SGLVZGm5H-25" style="edgeStyle=orthogonalEdgeStyle;html=1;exitX=0.5;exitY=0;exitDx=0;exitDy=0;entryX=0.125;entryY=1;entryDx=0;entryDy=0;entryPerimeter=0;startArrow=none;startFill=0;endArrow=classic;endFill=1;" parent="1" edge="1">
                    <mxGeometry relative="1" as="geometry">
                        <mxPoint x="120" y="199.8800000000001" as="sourcePoint"/>
                        <mxPoint x="160" y="199.8800000000001" as="targetPoint"/>
                    </mxGeometry>
                </mxCell>
                <mxCell id="oF5Y_QGtGQ3SGLVZGm5H-26" style="edgeStyle=orthogonalEdgeStyle;html=1;exitX=0.5;exitY=0;exitDx=0;exitDy=0;entryX=0.5;entryY=1;entryDx=0;entryDy=0;startArrow=none;startFill=0;endArrow=classic;endFill=1;" parent="1" edge="1">
                    <mxGeometry relative="1" as="geometry">
                        <mxPoint x="120" y="319.8800000000001" as="sourcePoint"/>
                        <mxPoint x="160" y="319.8800000000001" as="targetPoint"/>
                    </mxGeometry>
                </mxCell>
                <mxCell id="oF5Y_QGtGQ3SGLVZGm5H-27" style="edgeStyle=orthogonalEdgeStyle;html=1;exitX=0.5;exitY=0;exitDx=0;exitDy=0;entryX=0.875;entryY=1.1;entryDx=0;entryDy=0;entryPerimeter=0;startArrow=none;startFill=0;endArrow=classic;endFill=1;" parent="1" edge="1">
                    <mxGeometry relative="1" as="geometry">
                        <mxPoint x="120" y="439.8800000000001" as="sourcePoint"/>
                        <mxPoint x="156" y="439.8800000000001" as="targetPoint"/>
                    </mxGeometry>
                </mxCell>
                <mxCell id="oF5Y_QGtGQ3SGLVZGm5H-28" value="" style="edgeStyle=orthogonalEdgeStyle;html=1;exitX=0.5;exitY=1;exitDx=0;exitDy=0;strokeColor=#FF531F;strokeWidth=2;endArrow=none;" parent="1" target="oF5Y_QGtGQ3SGLVZGm5H-29" edge="1">
                    <mxGeometry relative="1" as="geometry">
                        <mxPoint x="160" y="440" as="sourcePoint"/>
                        <mxPoint x="500" y="290" as="targetPoint"/>
                        <Array as="points">
                            <mxPoint x="180" y="440"/>
                        </Array>
                    </mxGeometry>
                </mxCell>
                <mxCell id="oF5Y_QGtGQ3SGLVZGm5H-29" value="&lt;b&gt;&lt;i&gt;H&lt;/i&gt;&lt;/b&gt;&lt;sup&gt;1&lt;/sup&gt;" style="rounded=1;whiteSpace=wrap;html=1;direction=south;fillColor=#fff2cc;strokeColor=#d6b656;" parent="1" vertex="1">
                    <mxGeometry x="160" y="160" width="40" height="320" as="geometry"/>
                </mxCell>
                <mxCell id="oF5Y_QGtGQ3SGLVZGm5H-30" value="&lt;i style=&quot;&quot;&gt;&lt;b&gt;H&lt;/b&gt;&lt;span style=&quot;font-size: 10px;&quot;&gt;&lt;sup style=&quot;&quot;&gt;2&lt;/sup&gt;&lt;/span&gt;&lt;/i&gt;" style="rounded=1;whiteSpace=wrap;html=1;direction=south;fillColor=#fff2cc;strokeColor=#d6b656;" parent="1" vertex="1">
                    <mxGeometry x="320" y="160" width="40" height="320" as="geometry"/>
                </mxCell>
                <mxCell id="oF5Y_QGtGQ3SGLVZGm5H-31" value="Layer N-3" style="rounded=1;whiteSpace=wrap;html=1;direction=south;fillColor=#f5f5f5;fontColor=#333333;strokeColor=#666666;" parent="1" vertex="1">
                    <mxGeometry x="160" y="160" width="40" height="320" as="geometry"/>
                </mxCell>
                <mxCell id="oF5Y_QGtGQ3SGLVZGm5H-32" style="edgeStyle=orthogonalEdgeStyle;html=1;entryX=0.5;entryY=0;entryDx=0;entryDy=0;strokeColor=#FF531F;strokeWidth=2;" parent="1" source="oF5Y_QGtGQ3SGLVZGm5H-34" target="oF5Y_QGtGQ3SGLVZGm5H-14" edge="1">
                    <mxGeometry relative="1" as="geometry">
                        <Array as="points">
                            <mxPoint x="340" y="120"/>
                            <mxPoint x="500" y="120"/>
                        </Array>
                    </mxGeometry>
                </mxCell>
                <mxCell id="oF5Y_QGtGQ3SGLVZGm5H-33" value="Softmax" style="edgeLabel;html=1;align=center;verticalAlign=middle;resizable=0;points=[];" parent="oF5Y_QGtGQ3SGLVZGm5H-32" vertex="1" connectable="0">
                    <mxGeometry x="-0.8955" relative="1" as="geometry">
                        <mxPoint as="offset"/>
                    </mxGeometry>
                </mxCell>
                <mxCell id="oF5Y_QGtGQ3SGLVZGm5H-34" value="Layer N-1" style="rounded=1;whiteSpace=wrap;html=1;direction=south;fillColor=#f5f5f5;fontColor=#333333;strokeColor=#666666;" parent="1" vertex="1">
                    <mxGeometry x="320" y="160" width="40" height="320" as="geometry"/>
                </mxCell>
                <mxCell id="oF5Y_QGtGQ3SGLVZGm5H-35" value="Yes" style="text;html=1;align=center;verticalAlign=middle;resizable=0;points=[];autosize=1;strokeColor=none;fillColor=none;opacity=40;" parent="1" vertex="1">
                    <mxGeometry x="500" y="415" width="40" height="30" as="geometry"/>
                </mxCell>
                <mxCell id="oF5Y_QGtGQ3SGLVZGm5H-36" value="Layer N-4" style="rounded=1;whiteSpace=wrap;html=1;direction=south;fillColor=#f5f5f5;fontColor=#333333;strokeColor=#666666;" parent="1" vertex="1">
                    <mxGeometry x="80" y="160" width="40" height="320" as="geometry"/>
                </mxCell>
                <mxCell id="oF5Y_QGtGQ3SGLVZGm5H-37" value="&lt;font style=&quot;font-size: 16px;&quot;&gt;...&lt;/font&gt;" style="text;html=1;strokeColor=none;fillColor=none;align=center;verticalAlign=middle;whiteSpace=wrap;rounded=0;opacity=40;" parent="1" vertex="1">
                    <mxGeometry x="40" y="300" width="30" height="30" as="geometry"/>
                </mxCell>
                <mxCell id="oF5Y_QGtGQ3SGLVZGm5H-38" value="Output" style="rounded=1;whiteSpace=wrap;html=1;fillColor=#e1d5e7;strokeColor=#9673a6;" parent="1" vertex="1">
                    <mxGeometry x="760" y="290" width="120" height="60" as="geometry"/>
                </mxCell>
                <mxCell id="oF5Y_QGtGQ3SGLVZGm5H-39" style="edgeStyle=orthogonalEdgeStyle;html=1;exitX=0.5;exitY=0;exitDx=0;exitDy=0;entryX=0;entryY=0.5;entryDx=0;entryDy=0;fontSize=16;startArrow=none;startFill=0;endArrow=classic;endFill=1;dashed=1;opacity=40;" parent="1" edge="1">
                    <mxGeometry relative="1" as="geometry">
                        <mxPoint x="681" y="200" as="sourcePoint"/>
                        <mxPoint x="760" y="320" as="targetPoint"/>
                        <Array as="points">
                            <mxPoint x="720" y="200"/>
                            <mxPoint x="720" y="320"/>
                        </Array>
                    </mxGeometry>
                </mxCell>
                <mxCell id="oF5Y_QGtGQ3SGLVZGm5H-40" style="edgeStyle=orthogonalEdgeStyle;html=1;entryX=0;entryY=0.5;entryDx=0;entryDy=0;fontSize=16;startArrow=none;startFill=0;endArrow=classic;endFill=1;dashed=1;opacity=40;" parent="1" edge="1">
                    <mxGeometry relative="1" as="geometry">
                        <mxPoint x="681" y="320" as="sourcePoint"/>
                        <mxPoint x="760" y="320" as="targetPoint"/>
                    </mxGeometry>
                </mxCell>
                <mxCell id="oF5Y_QGtGQ3SGLVZGm5H-41" style="edgeStyle=orthogonalEdgeStyle;html=1;exitX=0.5;exitY=0;exitDx=0;exitDy=0;entryX=0;entryY=0.5;entryDx=0;entryDy=0;fontSize=16;startArrow=none;startFill=0;endArrow=classic;endFill=1;dashed=1;opacity=40;" parent="1" edge="1">
                    <mxGeometry relative="1" as="geometry">
                        <mxPoint x="681" y="440" as="sourcePoint"/>
                        <mxPoint x="760" y="320" as="targetPoint"/>
                        <Array as="points">
                            <mxPoint x="720" y="440"/>
                            <mxPoint x="720" y="320"/>
                        </Array>
                    </mxGeometry>
                </mxCell>
            </root>
        </mxGraphModel>
    </diagram>
    <diagram id="DdnB_q2rIsu5m3FvY6gc" name="Page-8">
        <mxGraphModel dx="908" dy="657" grid="1" gridSize="10" guides="1" tooltips="1" connect="1" arrows="1" fold="1" page="1" pageScale="1" pageWidth="850" pageHeight="1100" math="0" shadow="0">
            <root>
                <mxCell id="0"/>
                <mxCell id="1" parent="0"/>
                <mxCell id="KMiYLMQnX8LnH2qt5Ism-1" style="edgeStyle=orthogonalEdgeStyle;html=1;exitX=0.5;exitY=0;exitDx=0;exitDy=0;entryX=0.125;entryY=1;entryDx=0;entryDy=0;entryPerimeter=0;startArrow=none;startFill=0;endArrow=classic;endFill=1;" parent="1" target="KMiYLMQnX8LnH2qt5Ism-4" edge="1">
                    <mxGeometry relative="1" as="geometry">
                        <mxPoint x="200" y="200" as="sourcePoint"/>
                    </mxGeometry>
                </mxCell>
                <mxCell id="KMiYLMQnX8LnH2qt5Ism-2" style="edgeStyle=orthogonalEdgeStyle;html=1;exitX=0.5;exitY=0;exitDx=0;exitDy=0;entryX=0.5;entryY=1;entryDx=0;entryDy=0;startArrow=none;startFill=0;endArrow=classic;endFill=1;" parent="1" target="KMiYLMQnX8LnH2qt5Ism-4" edge="1">
                    <mxGeometry relative="1" as="geometry">
                        <mxPoint x="200" y="320" as="sourcePoint"/>
                    </mxGeometry>
                </mxCell>
                <mxCell id="KMiYLMQnX8LnH2qt5Ism-3" style="edgeStyle=orthogonalEdgeStyle;html=1;exitX=0.5;exitY=0;exitDx=0;exitDy=0;entryX=0.875;entryY=1.1;entryDx=0;entryDy=0;entryPerimeter=0;startArrow=none;startFill=0;endArrow=classic;endFill=1;" parent="1" target="KMiYLMQnX8LnH2qt5Ism-4" edge="1">
                    <mxGeometry relative="1" as="geometry">
                        <mxPoint x="200" y="440" as="sourcePoint"/>
                    </mxGeometry>
                </mxCell>
                <mxCell id="KMiYLMQnX8LnH2qt5Ism-4" value="Layer N-2" style="rounded=1;whiteSpace=wrap;html=1;direction=south;fillColor=#f5f5f5;fontColor=#333333;strokeColor=#666666;" parent="1" vertex="1">
                    <mxGeometry x="240" y="160" width="40" height="320" as="geometry"/>
                </mxCell>
                <mxCell id="KMiYLMQnX8LnH2qt5Ism-5" style="edgeStyle=orthogonalEdgeStyle;html=1;exitX=0.5;exitY=0;exitDx=0;exitDy=0;entryX=0;entryY=0.5;entryDx=0;entryDy=0;startArrow=none;startFill=0;endArrow=classic;endFill=1;" parent="1" target="KMiYLMQnX8LnH2qt5Ism-12" edge="1">
                    <mxGeometry relative="1" as="geometry">
                        <mxPoint x="360" y="200" as="sourcePoint"/>
                    </mxGeometry>
                </mxCell>
                <mxCell id="KMiYLMQnX8LnH2qt5Ism-6" style="edgeStyle=orthogonalEdgeStyle;html=1;exitX=0.5;exitY=0;exitDx=0;exitDy=0;entryX=0;entryY=0.5;entryDx=0;entryDy=0;startArrow=none;startFill=0;endArrow=classic;endFill=1;" parent="1" target="KMiYLMQnX8LnH2qt5Ism-12" edge="1">
                    <mxGeometry relative="1" as="geometry">
                        <mxPoint x="360" y="320" as="sourcePoint"/>
                    </mxGeometry>
                </mxCell>
                <mxCell id="KMiYLMQnX8LnH2qt5Ism-7" style="edgeStyle=orthogonalEdgeStyle;html=1;exitX=0.5;exitY=0;exitDx=0;exitDy=0;entryX=0;entryY=0.5;entryDx=0;entryDy=0;startArrow=none;startFill=0;endArrow=classic;endFill=1;" parent="1" target="KMiYLMQnX8LnH2qt5Ism-12" edge="1">
                    <mxGeometry relative="1" as="geometry">
                        <mxPoint x="360" y="440" as="sourcePoint"/>
                    </mxGeometry>
                </mxCell>
                <mxCell id="KMiYLMQnX8LnH2qt5Ism-8" style="edgeStyle=orthogonalEdgeStyle;html=1;exitX=1;exitY=0.5;exitDx=0;exitDy=0;startArrow=none;startFill=0;endArrow=classic;endFill=1;entryX=0.5;entryY=1;entryDx=0;entryDy=0;dashed=1;opacity=40;" parent="1" source="KMiYLMQnX8LnH2qt5Ism-12" target="KMiYLMQnX8LnH2qt5Ism-13" edge="1">
                    <mxGeometry relative="1" as="geometry">
                        <mxPoint x="450" y="340" as="targetPoint"/>
                    </mxGeometry>
                </mxCell>
                <mxCell id="KMiYLMQnX8LnH2qt5Ism-9" style="edgeStyle=orthogonalEdgeStyle;html=1;exitX=1;exitY=0.5;exitDx=0;exitDy=0;entryX=0.122;entryY=1.025;entryDx=0;entryDy=0;entryPerimeter=0;startArrow=none;startFill=0;endArrow=classic;endFill=1;dashed=1;opacity=40;" parent="1" source="KMiYLMQnX8LnH2qt5Ism-12" target="KMiYLMQnX8LnH2qt5Ism-13" edge="1">
                    <mxGeometry relative="1" as="geometry"/>
                </mxCell>
                <mxCell id="KMiYLMQnX8LnH2qt5Ism-10" style="edgeStyle=orthogonalEdgeStyle;html=1;exitX=1;exitY=0.5;exitDx=0;exitDy=0;entryX=0.878;entryY=1.05;entryDx=0;entryDy=0;entryPerimeter=0;startArrow=none;startFill=0;endArrow=classic;endFill=1;dashed=1;opacity=40;" parent="1" source="KMiYLMQnX8LnH2qt5Ism-12" target="KMiYLMQnX8LnH2qt5Ism-13" edge="1">
                    <mxGeometry relative="1" as="geometry"/>
                </mxCell>
                <mxCell id="KMiYLMQnX8LnH2qt5Ism-11" style="edgeStyle=orthogonalEdgeStyle;html=1;exitX=0.5;exitY=1;exitDx=0;exitDy=0;startArrow=none;startFill=0;endArrow=classic;endFill=1;" parent="1" source="KMiYLMQnX8LnH2qt5Ism-12" target="KMiYLMQnX8LnH2qt5Ism-17" edge="1">
                    <mxGeometry relative="1" as="geometry"/>
                </mxCell>
                <mxCell id="KMiYLMQnX8LnH2qt5Ism-12" value="Hidden state&lt;br&gt;similarity &amp;gt; &lt;i&gt;c&lt;/i&gt;" style="rounded=1;whiteSpace=wrap;html=1;fillColor=#fff2cc;strokeColor=#d6b656;" parent="1" vertex="1">
                    <mxGeometry x="440" y="290" width="120" height="60" as="geometry"/>
                </mxCell>
                <mxCell id="KMiYLMQnX8LnH2qt5Ism-13" value="Layer N" style="rounded=1;whiteSpace=wrap;html=1;direction=south;fillColor=#f5f5f5;fontColor=#333333;strokeColor=#666666;opacity=40;" parent="1" vertex="1">
                    <mxGeometry x="600" y="160" width="40" height="320" as="geometry"/>
                </mxCell>
                <mxCell id="KMiYLMQnX8LnH2qt5Ism-14" style="edgeStyle=orthogonalEdgeStyle;html=1;exitX=0.5;exitY=0;exitDx=0;exitDy=0;entryX=0.125;entryY=1;entryDx=0;entryDy=0;entryPerimeter=0;startArrow=none;startFill=0;endArrow=classic;endFill=1;" parent="1" edge="1">
                    <mxGeometry relative="1" as="geometry">
                        <mxPoint x="280" y="199.8800000000001" as="sourcePoint"/>
                        <mxPoint x="320" y="199.8800000000001" as="targetPoint"/>
                    </mxGeometry>
                </mxCell>
                <mxCell id="KMiYLMQnX8LnH2qt5Ism-15" style="edgeStyle=orthogonalEdgeStyle;html=1;exitX=0.5;exitY=0;exitDx=0;exitDy=0;entryX=0.5;entryY=1;entryDx=0;entryDy=0;startArrow=none;startFill=0;endArrow=classic;endFill=1;" parent="1" edge="1">
                    <mxGeometry relative="1" as="geometry">
                        <mxPoint x="280" y="319.8800000000001" as="sourcePoint"/>
                        <mxPoint x="320" y="319.8800000000001" as="targetPoint"/>
                    </mxGeometry>
                </mxCell>
                <mxCell id="KMiYLMQnX8LnH2qt5Ism-16" style="edgeStyle=orthogonalEdgeStyle;html=1;exitX=0.5;exitY=0;exitDx=0;exitDy=0;entryX=0.875;entryY=1.1;entryDx=0;entryDy=0;entryPerimeter=0;startArrow=none;startFill=0;endArrow=classic;endFill=1;" parent="1" edge="1">
                    <mxGeometry relative="1" as="geometry">
                        <mxPoint x="280" y="439.8800000000001" as="sourcePoint"/>
                        <mxPoint x="316" y="439.8800000000001" as="targetPoint"/>
                    </mxGeometry>
                </mxCell>
                <mxCell id="KMiYLMQnX8LnH2qt5Ism-17" value="Output" style="rounded=1;whiteSpace=wrap;html=1;fillColor=#e1d5e7;strokeColor=#9673a6;" parent="1" vertex="1">
                    <mxGeometry x="440" y="520" width="120" height="60" as="geometry"/>
                </mxCell>
                <mxCell id="KMiYLMQnX8LnH2qt5Ism-18" value="&lt;font style=&quot;font-size: 16px;&quot;&gt;...&lt;/font&gt;" style="text;html=1;strokeColor=none;fillColor=none;align=center;verticalAlign=middle;whiteSpace=wrap;rounded=0;opacity=40;" parent="1" vertex="1">
                    <mxGeometry x="645" y="300" width="30" height="30" as="geometry"/>
                </mxCell>
                <mxCell id="KMiYLMQnX8LnH2qt5Ism-19" style="edgeStyle=orthogonalEdgeStyle;html=1;exitX=0.5;exitY=0;exitDx=0;exitDy=0;entryX=0.125;entryY=1;entryDx=0;entryDy=0;entryPerimeter=0;startArrow=none;startFill=0;endArrow=classic;endFill=1;" parent="1" edge="1">
                    <mxGeometry relative="1" as="geometry">
                        <mxPoint x="120" y="199.8800000000001" as="sourcePoint"/>
                        <mxPoint x="160" y="199.8800000000001" as="targetPoint"/>
                    </mxGeometry>
                </mxCell>
                <mxCell id="KMiYLMQnX8LnH2qt5Ism-20" style="edgeStyle=orthogonalEdgeStyle;html=1;exitX=0.5;exitY=0;exitDx=0;exitDy=0;entryX=0.5;entryY=1;entryDx=0;entryDy=0;startArrow=none;startFill=0;endArrow=classic;endFill=1;" parent="1" edge="1">
                    <mxGeometry relative="1" as="geometry">
                        <mxPoint x="120" y="319.8800000000001" as="sourcePoint"/>
                        <mxPoint x="160" y="319.8800000000001" as="targetPoint"/>
                    </mxGeometry>
                </mxCell>
                <mxCell id="KMiYLMQnX8LnH2qt5Ism-21" style="edgeStyle=orthogonalEdgeStyle;html=1;exitX=0.5;exitY=0;exitDx=0;exitDy=0;entryX=0.875;entryY=1.1;entryDx=0;entryDy=0;entryPerimeter=0;startArrow=none;startFill=0;endArrow=classic;endFill=1;" parent="1" edge="1">
                    <mxGeometry relative="1" as="geometry">
                        <mxPoint x="120" y="439.8800000000001" as="sourcePoint"/>
                        <mxPoint x="156" y="439.8800000000001" as="targetPoint"/>
                    </mxGeometry>
                </mxCell>
                <mxCell id="KMiYLMQnX8LnH2qt5Ism-22" value="" style="edgeStyle=orthogonalEdgeStyle;html=1;exitX=0.5;exitY=1;exitDx=0;exitDy=0;strokeColor=#FF531F;strokeWidth=2;endArrow=none;" parent="1" target="KMiYLMQnX8LnH2qt5Ism-23" edge="1">
                    <mxGeometry relative="1" as="geometry">
                        <mxPoint x="160" y="440" as="sourcePoint"/>
                        <mxPoint x="500" y="290" as="targetPoint"/>
                        <Array as="points">
                            <mxPoint x="180" y="440"/>
                        </Array>
                    </mxGeometry>
                </mxCell>
                <mxCell id="KMiYLMQnX8LnH2qt5Ism-23" value="&lt;b&gt;&lt;i&gt;H&lt;/i&gt;&lt;/b&gt;&lt;sup&gt;1&lt;/sup&gt;" style="rounded=1;whiteSpace=wrap;html=1;direction=south;fillColor=#fff2cc;strokeColor=#d6b656;" parent="1" vertex="1">
                    <mxGeometry x="160" y="160" width="40" height="320" as="geometry"/>
                </mxCell>
                <mxCell id="KMiYLMQnX8LnH2qt5Ism-24" value="&lt;i style=&quot;&quot;&gt;&lt;b&gt;H&lt;/b&gt;&lt;span style=&quot;font-size: 10px;&quot;&gt;&lt;sup style=&quot;&quot;&gt;2&lt;/sup&gt;&lt;/span&gt;&lt;/i&gt;" style="rounded=1;whiteSpace=wrap;html=1;direction=south;fillColor=#fff2cc;strokeColor=#d6b656;" parent="1" vertex="1">
                    <mxGeometry x="320" y="160" width="40" height="320" as="geometry"/>
                </mxCell>
                <mxCell id="KMiYLMQnX8LnH2qt5Ism-25" value="Layer N-3" style="rounded=1;whiteSpace=wrap;html=1;direction=south;fillColor=#f5f5f5;fontColor=#333333;strokeColor=#666666;" parent="1" vertex="1">
                    <mxGeometry x="160" y="160" width="40" height="320" as="geometry"/>
                </mxCell>
                <mxCell id="KMiYLMQnX8LnH2qt5Ism-26" style="edgeStyle=orthogonalEdgeStyle;html=1;entryX=0.5;entryY=0;entryDx=0;entryDy=0;strokeColor=#FF531F;strokeWidth=2;" parent="1" source="KMiYLMQnX8LnH2qt5Ism-28" target="KMiYLMQnX8LnH2qt5Ism-12" edge="1">
                    <mxGeometry relative="1" as="geometry">
                        <Array as="points">
                            <mxPoint x="340" y="120"/>
                            <mxPoint x="500" y="120"/>
                        </Array>
                    </mxGeometry>
                </mxCell>
                <mxCell id="KMiYLMQnX8LnH2qt5Ism-28" value="Layer N-1" style="rounded=1;whiteSpace=wrap;html=1;direction=south;fillColor=#f5f5f5;fontColor=#333333;strokeColor=#666666;" parent="1" vertex="1">
                    <mxGeometry x="320" y="160" width="40" height="320" as="geometry"/>
                </mxCell>
                <mxCell id="KMiYLMQnX8LnH2qt5Ism-29" value="Yes" style="text;html=1;align=center;verticalAlign=middle;resizable=0;points=[];autosize=1;strokeColor=none;fillColor=none;opacity=40;" parent="1" vertex="1">
                    <mxGeometry x="500" y="415" width="40" height="30" as="geometry"/>
                </mxCell>
                <mxCell id="KMiYLMQnX8LnH2qt5Ism-30" value="Layer N-4" style="rounded=1;whiteSpace=wrap;html=1;direction=south;fillColor=#f5f5f5;fontColor=#333333;strokeColor=#666666;" parent="1" vertex="1">
                    <mxGeometry x="80" y="160" width="40" height="320" as="geometry"/>
                </mxCell>
                <mxCell id="KMiYLMQnX8LnH2qt5Ism-31" value="&lt;font style=&quot;font-size: 16px;&quot;&gt;...&lt;/font&gt;" style="text;html=1;strokeColor=none;fillColor=none;align=center;verticalAlign=middle;whiteSpace=wrap;rounded=0;opacity=40;" parent="1" vertex="1">
                    <mxGeometry x="40" y="300" width="30" height="30" as="geometry"/>
                </mxCell>
                <mxCell id="KMiYLMQnX8LnH2qt5Ism-32" value="Output" style="rounded=1;whiteSpace=wrap;html=1;fillColor=#e1d5e7;strokeColor=#9673a6;" parent="1" vertex="1">
                    <mxGeometry x="760" y="290" width="120" height="60" as="geometry"/>
                </mxCell>
                <mxCell id="KMiYLMQnX8LnH2qt5Ism-33" style="edgeStyle=orthogonalEdgeStyle;html=1;exitX=0.5;exitY=0;exitDx=0;exitDy=0;entryX=0;entryY=0.5;entryDx=0;entryDy=0;fontSize=16;startArrow=none;startFill=0;endArrow=classic;endFill=1;dashed=1;opacity=40;" parent="1" edge="1">
                    <mxGeometry relative="1" as="geometry">
                        <mxPoint x="681" y="200" as="sourcePoint"/>
                        <mxPoint x="760" y="320" as="targetPoint"/>
                        <Array as="points">
                            <mxPoint x="720" y="200"/>
                            <mxPoint x="720" y="320"/>
                        </Array>
                    </mxGeometry>
                </mxCell>
                <mxCell id="KMiYLMQnX8LnH2qt5Ism-34" style="edgeStyle=orthogonalEdgeStyle;html=1;entryX=0;entryY=0.5;entryDx=0;entryDy=0;fontSize=16;startArrow=none;startFill=0;endArrow=classic;endFill=1;dashed=1;opacity=40;" parent="1" edge="1">
                    <mxGeometry relative="1" as="geometry">
                        <mxPoint x="681" y="320" as="sourcePoint"/>
                        <mxPoint x="760" y="320" as="targetPoint"/>
                    </mxGeometry>
                </mxCell>
                <mxCell id="KMiYLMQnX8LnH2qt5Ism-35" style="edgeStyle=orthogonalEdgeStyle;html=1;exitX=0.5;exitY=0;exitDx=0;exitDy=0;entryX=0;entryY=0.5;entryDx=0;entryDy=0;fontSize=16;startArrow=none;startFill=0;endArrow=classic;endFill=1;dashed=1;opacity=40;" parent="1" edge="1">
                    <mxGeometry relative="1" as="geometry">
                        <mxPoint x="681" y="440" as="sourcePoint"/>
                        <mxPoint x="760" y="320" as="targetPoint"/>
                        <Array as="points">
                            <mxPoint x="720" y="440"/>
                            <mxPoint x="720" y="320"/>
                        </Array>
                    </mxGeometry>
                </mxCell>
                <mxCell id="KMiYLMQnX8LnH2qt5Ism-36" style="edgeStyle=orthogonalEdgeStyle;html=1;entryX=0.5;entryY=0;entryDx=0;entryDy=0;strokeColor=#FF531F;strokeWidth=2;" parent="1" edge="1">
                    <mxGeometry relative="1" as="geometry">
                        <Array as="points">
                            <mxPoint x="260" y="160"/>
                            <mxPoint x="260" y="120"/>
                            <mxPoint x="500" y="120"/>
                        </Array>
                        <mxPoint x="260" y="160" as="sourcePoint"/>
                        <mxPoint x="500" y="290" as="targetPoint"/>
                    </mxGeometry>
                </mxCell>
            </root>
        </mxGraphModel>
    </diagram>
    <diagram id="BPU309ZHJaw2N-cYSSpw" name="Page-9">
        <mxGraphModel dx="681" dy="493" grid="1" gridSize="10" guides="1" tooltips="1" connect="1" arrows="1" fold="1" page="1" pageScale="1" pageWidth="850" pageHeight="1100" math="0" shadow="0">
            <root>
                <mxCell id="0"/>
                <mxCell id="1" parent="0"/>
                <mxCell id="gWIBj-gUoBmHXQ43SqFq-1" style="edgeStyle=orthogonalEdgeStyle;html=1;exitX=0.5;exitY=0;exitDx=0;exitDy=0;entryX=0.125;entryY=1;entryDx=0;entryDy=0;entryPerimeter=0;startArrow=none;startFill=0;endArrow=classic;endFill=1;" parent="1" target="gWIBj-gUoBmHXQ43SqFq-4" edge="1">
                    <mxGeometry relative="1" as="geometry">
                        <mxPoint x="200" y="200" as="sourcePoint"/>
                    </mxGeometry>
                </mxCell>
                <mxCell id="gWIBj-gUoBmHXQ43SqFq-2" style="edgeStyle=orthogonalEdgeStyle;html=1;exitX=0.5;exitY=0;exitDx=0;exitDy=0;entryX=0.5;entryY=1;entryDx=0;entryDy=0;startArrow=none;startFill=0;endArrow=classic;endFill=1;" parent="1" target="gWIBj-gUoBmHXQ43SqFq-4" edge="1">
                    <mxGeometry relative="1" as="geometry">
                        <mxPoint x="200" y="320" as="sourcePoint"/>
                    </mxGeometry>
                </mxCell>
                <mxCell id="gWIBj-gUoBmHXQ43SqFq-3" style="edgeStyle=orthogonalEdgeStyle;html=1;exitX=0.5;exitY=0;exitDx=0;exitDy=0;entryX=0.875;entryY=1.1;entryDx=0;entryDy=0;entryPerimeter=0;startArrow=none;startFill=0;endArrow=classic;endFill=1;" parent="1" target="gWIBj-gUoBmHXQ43SqFq-4" edge="1">
                    <mxGeometry relative="1" as="geometry">
                        <mxPoint x="200" y="440" as="sourcePoint"/>
                    </mxGeometry>
                </mxCell>
                <mxCell id="gWIBj-gUoBmHXQ43SqFq-4" value="Layer N-2" style="rounded=1;whiteSpace=wrap;html=1;direction=south;fillColor=#f5f5f5;fontColor=#333333;strokeColor=#666666;" parent="1" vertex="1">
                    <mxGeometry x="240" y="160" width="40" height="320" as="geometry"/>
                </mxCell>
                <mxCell id="gWIBj-gUoBmHXQ43SqFq-5" style="edgeStyle=orthogonalEdgeStyle;html=1;exitX=0.5;exitY=0;exitDx=0;exitDy=0;entryX=0;entryY=0.5;entryDx=0;entryDy=0;startArrow=none;startFill=0;endArrow=classic;endFill=1;" parent="1" target="gWIBj-gUoBmHXQ43SqFq-12" edge="1">
                    <mxGeometry relative="1" as="geometry">
                        <mxPoint x="360" y="200" as="sourcePoint"/>
                    </mxGeometry>
                </mxCell>
                <mxCell id="gWIBj-gUoBmHXQ43SqFq-6" style="edgeStyle=orthogonalEdgeStyle;html=1;exitX=0.5;exitY=0;exitDx=0;exitDy=0;entryX=0;entryY=0.5;entryDx=0;entryDy=0;startArrow=none;startFill=0;endArrow=classic;endFill=1;" parent="1" target="gWIBj-gUoBmHXQ43SqFq-12" edge="1">
                    <mxGeometry relative="1" as="geometry">
                        <mxPoint x="360" y="320" as="sourcePoint"/>
                    </mxGeometry>
                </mxCell>
                <mxCell id="gWIBj-gUoBmHXQ43SqFq-7" style="edgeStyle=orthogonalEdgeStyle;html=1;exitX=0.5;exitY=0;exitDx=0;exitDy=0;entryX=0;entryY=0.5;entryDx=0;entryDy=0;startArrow=none;startFill=0;endArrow=classic;endFill=1;" parent="1" target="gWIBj-gUoBmHXQ43SqFq-12" edge="1">
                    <mxGeometry relative="1" as="geometry">
                        <mxPoint x="360" y="440" as="sourcePoint"/>
                    </mxGeometry>
                </mxCell>
                <mxCell id="gWIBj-gUoBmHXQ43SqFq-8" style="edgeStyle=orthogonalEdgeStyle;html=1;exitX=1;exitY=0.5;exitDx=0;exitDy=0;startArrow=none;startFill=0;endArrow=classic;endFill=1;entryX=0.5;entryY=1;entryDx=0;entryDy=0;dashed=1;opacity=40;" parent="1" source="gWIBj-gUoBmHXQ43SqFq-12" target="gWIBj-gUoBmHXQ43SqFq-13" edge="1">
                    <mxGeometry relative="1" as="geometry">
                        <mxPoint x="450" y="340" as="targetPoint"/>
                    </mxGeometry>
                </mxCell>
                <mxCell id="gWIBj-gUoBmHXQ43SqFq-9" style="edgeStyle=orthogonalEdgeStyle;html=1;exitX=1;exitY=0.5;exitDx=0;exitDy=0;entryX=0.122;entryY=1.025;entryDx=0;entryDy=0;entryPerimeter=0;startArrow=none;startFill=0;endArrow=classic;endFill=1;dashed=1;opacity=40;" parent="1" source="gWIBj-gUoBmHXQ43SqFq-12" target="gWIBj-gUoBmHXQ43SqFq-13" edge="1">
                    <mxGeometry relative="1" as="geometry"/>
                </mxCell>
                <mxCell id="gWIBj-gUoBmHXQ43SqFq-10" style="edgeStyle=orthogonalEdgeStyle;html=1;exitX=1;exitY=0.5;exitDx=0;exitDy=0;entryX=0.878;entryY=1.05;entryDx=0;entryDy=0;entryPerimeter=0;startArrow=none;startFill=0;endArrow=classic;endFill=1;dashed=1;opacity=40;" parent="1" source="gWIBj-gUoBmHXQ43SqFq-12" target="gWIBj-gUoBmHXQ43SqFq-13" edge="1">
                    <mxGeometry relative="1" as="geometry"/>
                </mxCell>
                <mxCell id="gWIBj-gUoBmHXQ43SqFq-11" style="edgeStyle=orthogonalEdgeStyle;html=1;exitX=0.5;exitY=1;exitDx=0;exitDy=0;startArrow=none;startFill=0;endArrow=classic;endFill=1;" parent="1" source="gWIBj-gUoBmHXQ43SqFq-12" target="gWIBj-gUoBmHXQ43SqFq-17" edge="1">
                    <mxGeometry relative="1" as="geometry"/>
                </mxCell>
                <mxCell id="gWIBj-gUoBmHXQ43SqFq-12" value="MLP" style="rounded=1;whiteSpace=wrap;html=1;fillColor=#fff2cc;strokeColor=#d6b656;" parent="1" vertex="1">
                    <mxGeometry x="440" y="290" width="120" height="60" as="geometry"/>
                </mxCell>
                <mxCell id="gWIBj-gUoBmHXQ43SqFq-13" value="Layer N" style="rounded=1;whiteSpace=wrap;html=1;direction=south;fillColor=#f5f5f5;fontColor=#333333;strokeColor=#666666;opacity=40;" parent="1" vertex="1">
                    <mxGeometry x="600" y="160" width="40" height="320" as="geometry"/>
                </mxCell>
                <mxCell id="gWIBj-gUoBmHXQ43SqFq-14" style="edgeStyle=orthogonalEdgeStyle;html=1;exitX=0.5;exitY=0;exitDx=0;exitDy=0;entryX=0.125;entryY=1;entryDx=0;entryDy=0;entryPerimeter=0;startArrow=none;startFill=0;endArrow=classic;endFill=1;" parent="1" edge="1">
                    <mxGeometry relative="1" as="geometry">
                        <mxPoint x="280" y="199.8800000000001" as="sourcePoint"/>
                        <mxPoint x="320" y="199.8800000000001" as="targetPoint"/>
                    </mxGeometry>
                </mxCell>
                <mxCell id="gWIBj-gUoBmHXQ43SqFq-15" style="edgeStyle=orthogonalEdgeStyle;html=1;exitX=0.5;exitY=0;exitDx=0;exitDy=0;entryX=0.5;entryY=1;entryDx=0;entryDy=0;startArrow=none;startFill=0;endArrow=classic;endFill=1;" parent="1" edge="1">
                    <mxGeometry relative="1" as="geometry">
                        <mxPoint x="280" y="319.8800000000001" as="sourcePoint"/>
                        <mxPoint x="320" y="319.8800000000001" as="targetPoint"/>
                    </mxGeometry>
                </mxCell>
                <mxCell id="gWIBj-gUoBmHXQ43SqFq-16" style="edgeStyle=orthogonalEdgeStyle;html=1;exitX=0.5;exitY=0;exitDx=0;exitDy=0;entryX=0.875;entryY=1.1;entryDx=0;entryDy=0;entryPerimeter=0;startArrow=none;startFill=0;endArrow=classic;endFill=1;" parent="1" edge="1">
                    <mxGeometry relative="1" as="geometry">
                        <mxPoint x="280" y="439.8800000000001" as="sourcePoint"/>
                        <mxPoint x="316" y="439.8800000000001" as="targetPoint"/>
                    </mxGeometry>
                </mxCell>
                <mxCell id="gWIBj-gUoBmHXQ43SqFq-17" value="Output" style="rounded=1;whiteSpace=wrap;html=1;fillColor=#e1d5e7;strokeColor=#9673a6;" parent="1" vertex="1">
                    <mxGeometry x="440" y="520" width="120" height="60" as="geometry"/>
                </mxCell>
                <mxCell id="gWIBj-gUoBmHXQ43SqFq-18" value="&lt;font style=&quot;font-size: 16px;&quot;&gt;...&lt;/font&gt;" style="text;html=1;strokeColor=none;fillColor=none;align=center;verticalAlign=middle;whiteSpace=wrap;rounded=0;opacity=40;" parent="1" vertex="1">
                    <mxGeometry x="645" y="300" width="30" height="30" as="geometry"/>
                </mxCell>
                <mxCell id="gWIBj-gUoBmHXQ43SqFq-19" style="edgeStyle=orthogonalEdgeStyle;html=1;exitX=0.5;exitY=0;exitDx=0;exitDy=0;entryX=0.125;entryY=1;entryDx=0;entryDy=0;entryPerimeter=0;startArrow=none;startFill=0;endArrow=classic;endFill=1;" parent="1" edge="1">
                    <mxGeometry relative="1" as="geometry">
                        <mxPoint x="120" y="199.8800000000001" as="sourcePoint"/>
                        <mxPoint x="160" y="199.8800000000001" as="targetPoint"/>
                    </mxGeometry>
                </mxCell>
                <mxCell id="gWIBj-gUoBmHXQ43SqFq-20" style="edgeStyle=orthogonalEdgeStyle;html=1;exitX=0.5;exitY=0;exitDx=0;exitDy=0;entryX=0.5;entryY=1;entryDx=0;entryDy=0;startArrow=none;startFill=0;endArrow=classic;endFill=1;" parent="1" edge="1">
                    <mxGeometry relative="1" as="geometry">
                        <mxPoint x="120" y="319.8800000000001" as="sourcePoint"/>
                        <mxPoint x="160" y="319.8800000000001" as="targetPoint"/>
                    </mxGeometry>
                </mxCell>
                <mxCell id="gWIBj-gUoBmHXQ43SqFq-21" style="edgeStyle=orthogonalEdgeStyle;html=1;exitX=0.5;exitY=0;exitDx=0;exitDy=0;entryX=0.875;entryY=1.1;entryDx=0;entryDy=0;entryPerimeter=0;startArrow=none;startFill=0;endArrow=classic;endFill=1;" parent="1" edge="1">
                    <mxGeometry relative="1" as="geometry">
                        <mxPoint x="120" y="439.8800000000001" as="sourcePoint"/>
                        <mxPoint x="156" y="439.8800000000001" as="targetPoint"/>
                    </mxGeometry>
                </mxCell>
                <mxCell id="gWIBj-gUoBmHXQ43SqFq-22" value="" style="edgeStyle=orthogonalEdgeStyle;html=1;exitX=0.5;exitY=1;exitDx=0;exitDy=0;strokeColor=#FF531F;strokeWidth=2;endArrow=none;" parent="1" target="gWIBj-gUoBmHXQ43SqFq-23" edge="1">
                    <mxGeometry relative="1" as="geometry">
                        <mxPoint x="160" y="440" as="sourcePoint"/>
                        <mxPoint x="500" y="290" as="targetPoint"/>
                        <Array as="points">
                            <mxPoint x="180" y="440"/>
                        </Array>
                    </mxGeometry>
                </mxCell>
                <mxCell id="gWIBj-gUoBmHXQ43SqFq-23" value="&lt;b&gt;&lt;i&gt;H&lt;/i&gt;&lt;/b&gt;&lt;sup&gt;1&lt;/sup&gt;" style="rounded=1;whiteSpace=wrap;html=1;direction=south;fillColor=#fff2cc;strokeColor=#d6b656;" parent="1" vertex="1">
                    <mxGeometry x="160" y="160" width="40" height="320" as="geometry"/>
                </mxCell>
                <mxCell id="gWIBj-gUoBmHXQ43SqFq-24" value="&lt;i style=&quot;&quot;&gt;&lt;b&gt;H&lt;/b&gt;&lt;span style=&quot;font-size: 10px;&quot;&gt;&lt;sup style=&quot;&quot;&gt;2&lt;/sup&gt;&lt;/span&gt;&lt;/i&gt;" style="rounded=1;whiteSpace=wrap;html=1;direction=south;fillColor=#fff2cc;strokeColor=#d6b656;" parent="1" vertex="1">
                    <mxGeometry x="320" y="160" width="40" height="320" as="geometry"/>
                </mxCell>
                <mxCell id="gWIBj-gUoBmHXQ43SqFq-25" value="Layer N-3" style="rounded=1;whiteSpace=wrap;html=1;direction=south;fillColor=#f5f5f5;fontColor=#333333;strokeColor=#666666;" parent="1" vertex="1">
                    <mxGeometry x="160" y="160" width="40" height="320" as="geometry"/>
                </mxCell>
                <mxCell id="gWIBj-gUoBmHXQ43SqFq-26" style="edgeStyle=orthogonalEdgeStyle;html=1;entryX=0.5;entryY=0;entryDx=0;entryDy=0;strokeColor=#FF531F;strokeWidth=2;" parent="1" source="gWIBj-gUoBmHXQ43SqFq-27" target="gWIBj-gUoBmHXQ43SqFq-12" edge="1">
                    <mxGeometry relative="1" as="geometry">
                        <Array as="points">
                            <mxPoint x="340" y="120"/>
                            <mxPoint x="500" y="120"/>
                        </Array>
                    </mxGeometry>
                </mxCell>
                <mxCell id="gWIBj-gUoBmHXQ43SqFq-27" value="Layer N-1" style="rounded=1;whiteSpace=wrap;html=1;direction=south;fillColor=#f5f5f5;fontColor=#333333;strokeColor=#666666;" parent="1" vertex="1">
                    <mxGeometry x="320" y="160" width="40" height="320" as="geometry"/>
                </mxCell>
                <mxCell id="gWIBj-gUoBmHXQ43SqFq-28" value="Yes" style="text;html=1;align=center;verticalAlign=middle;resizable=0;points=[];autosize=1;strokeColor=none;fillColor=none;opacity=40;" parent="1" vertex="1">
                    <mxGeometry x="500" y="415" width="40" height="30" as="geometry"/>
                </mxCell>
                <mxCell id="gWIBj-gUoBmHXQ43SqFq-29" value="Layer N-4" style="rounded=1;whiteSpace=wrap;html=1;direction=south;fillColor=#f5f5f5;fontColor=#333333;strokeColor=#666666;" parent="1" vertex="1">
                    <mxGeometry x="80" y="160" width="40" height="320" as="geometry"/>
                </mxCell>
                <mxCell id="gWIBj-gUoBmHXQ43SqFq-30" value="&lt;font style=&quot;font-size: 16px;&quot;&gt;...&lt;/font&gt;" style="text;html=1;strokeColor=none;fillColor=none;align=center;verticalAlign=middle;whiteSpace=wrap;rounded=0;opacity=40;" parent="1" vertex="1">
                    <mxGeometry x="40" y="300" width="30" height="30" as="geometry"/>
                </mxCell>
                <mxCell id="gWIBj-gUoBmHXQ43SqFq-31" value="Output" style="rounded=1;whiteSpace=wrap;html=1;fillColor=#e1d5e7;strokeColor=#9673a6;" parent="1" vertex="1">
                    <mxGeometry x="760" y="290" width="120" height="60" as="geometry"/>
                </mxCell>
                <mxCell id="gWIBj-gUoBmHXQ43SqFq-32" style="edgeStyle=orthogonalEdgeStyle;html=1;exitX=0.5;exitY=0;exitDx=0;exitDy=0;entryX=0;entryY=0.5;entryDx=0;entryDy=0;fontSize=16;startArrow=none;startFill=0;endArrow=classic;endFill=1;dashed=1;opacity=40;" parent="1" edge="1">
                    <mxGeometry relative="1" as="geometry">
                        <mxPoint x="681" y="200" as="sourcePoint"/>
                        <mxPoint x="760" y="320" as="targetPoint"/>
                        <Array as="points">
                            <mxPoint x="720" y="200"/>
                            <mxPoint x="720" y="320"/>
                        </Array>
                    </mxGeometry>
                </mxCell>
                <mxCell id="gWIBj-gUoBmHXQ43SqFq-33" style="edgeStyle=orthogonalEdgeStyle;html=1;entryX=0;entryY=0.5;entryDx=0;entryDy=0;fontSize=16;startArrow=none;startFill=0;endArrow=classic;endFill=1;dashed=1;opacity=40;" parent="1" edge="1">
                    <mxGeometry relative="1" as="geometry">
                        <mxPoint x="681" y="320" as="sourcePoint"/>
                        <mxPoint x="760" y="320" as="targetPoint"/>
                    </mxGeometry>
                </mxCell>
                <mxCell id="gWIBj-gUoBmHXQ43SqFq-34" style="edgeStyle=orthogonalEdgeStyle;html=1;exitX=0.5;exitY=0;exitDx=0;exitDy=0;entryX=0;entryY=0.5;entryDx=0;entryDy=0;fontSize=16;startArrow=none;startFill=0;endArrow=classic;endFill=1;dashed=1;opacity=40;" parent="1" edge="1">
                    <mxGeometry relative="1" as="geometry">
                        <mxPoint x="681" y="440" as="sourcePoint"/>
                        <mxPoint x="760" y="320" as="targetPoint"/>
                        <Array as="points">
                            <mxPoint x="720" y="440"/>
                            <mxPoint x="720" y="320"/>
                        </Array>
                    </mxGeometry>
                </mxCell>
            </root>
        </mxGraphModel>
    </diagram>
</mxfile>